<svg aria-roledescription="er" role="graphics-document document" viewBox="0 0 370.09375 459" style="max-width: 370.094px; background-color: transparent;" class="erDiagram" xmlns:xlink="http://www.w3.org/1999/xlink" xmlns="http://www.w3.org/2000/svg" width="100%" id="my-svg"><style>#my-svg{font-family:"trebuchet ms",verdana,arial,sans-serif;font-size:16px;fill:#000000;}@keyframes edge-animation-frame{from{stroke-dashoffset:0;}}@keyframes dash{to{stroke-dashoffset:0;}}#my-svg .edge-animation-slow{stroke-dasharray:9,5!important;stroke-dashoffset:900;animation:dash 50s linear infinite;stroke-linecap:round;}#my-svg .edge-animation-fast{stroke-dasharray:9,5!important;stroke-dashoffset:900;animation:dash 20s linear infinite;stroke-linecap:round;}#my-svg .error-icon{fill:#552222;}#my-svg .error-text{fill:#552222;stroke:#552222;}#my-svg .edge-thickness-normal{stroke-width:1px;}#my-svg .edge-thickness-thick{stroke-width:3.5px;}#my-svg .edge-pattern-solid{stroke-dasharray:0;}#my-svg .edge-thickness-invisible{stroke-width:0;fill:none;}#my-svg .edge-pattern-dashed{stroke-dasharray:3;}#my-svg .edge-pattern-dotted{stroke-dasharray:2;}#my-svg .marker{fill:#666;stroke:#666;}#my-svg .marker.cross{stroke:#666;}#my-svg svg{font-family:"trebuchet ms",verdana,arial,sans-serif;font-size:16px;}#my-svg p{margin:0;}#my-svg .entityBox{fill:#eee;stroke:#999;}#my-svg .relationshipLabelBox{fill:hsl(-160, 0%, 93.3333333333%);opacity:0.7;background-color:hsl(-160, 0%, 93.3333333333%);}#my-svg .relationshipLabelBox rect{opacity:0.5;}#my-svg .labelBkg{background-color:rgba(237.9999999999, 237.9999999999, 237.9999999999, 0.5);}#my-svg .edgeLabel .label{fill:#999;font-size:14px;}#my-svg .label{font-family:"trebuchet ms",verdana,arial,sans-serif;color:#000000;}#my-svg .edge-pattern-dashed{stroke-dasharray:8,8;}#my-svg .node rect,#my-svg .node circle,#my-svg .node ellipse,#my-svg .node polygon{fill:#eee;stroke:#999;stroke-width:1px;}#my-svg .relationshipLine{stroke:#666;stroke-width:1;fill:none;}#my-svg .marker{fill:none!important;stroke:#666!important;stroke-width:1;}#my-svg :root{--mermaid-font-family:"trebuchet ms",verdana,arial,sans-serif;}</style><g><defs><marker orient="auto" markerHeight="18" markerWidth="18" refY="9" refX="0" class="marker onlyOne er" id="my-svg_er-onlyOneStart"><path d="M9,0 L9,18 M15,0 L15,18"/></marker></defs><defs><marker orient="auto" markerHeight="18" markerWidth="18" refY="9" refX="18" class="marker onlyOne er" id="my-svg_er-onlyOneEnd"><path d="M3,0 L3,18 M9,0 L9,18"/></marker></defs><defs><marker orient="auto" markerHeight="18" markerWidth="30" refY="9" refX="0" class="marker zeroOrOne er" id="my-svg_er-zeroOrOneStart"><circle r="6" cy="9" cx="21" fill="white"/><path d="M9,0 L9,18"/></marker></defs><defs><marker orient="auto" markerHeight="18" markerWidth="30" refY="9" refX="30" class="marker zeroOrOne er" id="my-svg_er-zeroOrOneEnd"><circle r="6" cy="9" cx="9" fill="white"/><path d="M21,0 L21,18"/></marker></defs><defs><marker orient="auto" markerHeight="36" markerWidth="45" refY="18" refX="18" class="marker oneOrMore er" id="my-svg_er-oneOrMoreStart"><path d="M0,18 Q 18,0 36,18 Q 18,36 0,18 M42,9 L42,27"/></marker></defs><defs><marker orient="auto" markerHeight="36" markerWidth="45" refY="18" refX="27" class="marker oneOrMore er" id="my-svg_er-oneOrMoreEnd"><path d="M3,9 L3,27 M9,18 Q27,0 45,18 Q27,36 9,18"/></marker></defs><defs><marker orient="auto" markerHeight="36" markerWidth="57" refY="18" refX="18" class="marker zeroOrMore er" id="my-svg_er-zeroOrMoreStart"><circle r="6" cy="18" cx="48" fill="white"/><path d="M0,18 Q18,0 36,18 Q18,36 0,18"/></marker></defs><defs><marker orient="auto" markerHeight="36" markerWidth="57" refY="18" refX="39" class="marker zeroOrMore er" id="my-svg_er-zeroOrMoreEnd"><circle r="6" cy="18" cx="9" fill="white"/><path d="M21,18 Q39,0 57,18 Q39,36 21,18"/></marker></defs><g class="root"><g class="clusters"/><g class="edgePaths"><path marker-end="url(#my-svg_er-zeroOrMoreEnd)" marker-start="url(#my-svg_er-onlyOneStart)" style="" class="edge-thickness-normal edge-pattern-solid relationshipLine" id="id_entity-EMPREGADOS-0_entity-DEPENDENTES-1_0" d="M185.047,179L185.047,187.417C185.047,195.833,185.047,212.667,185.047,229.5C185.047,246.333,185.047,263.167,185.047,271.583L185.047,280"/></g><g class="edgeLabels"><g transform="translate(185.046875, 229.5)" class="edgeLabel"><g transform="translate(-19.1484375, -10.5)" class="label"><foreignObject height="21" width="38.296875"><div style="display: table-cell; white-space: nowrap; line-height: 1.5; max-width: 200px; text-align: center;" class="labelBkg" xmlns="http://www.w3.org/1999/xhtml"><span class="edgeLabel"><p>possui</p></span></div></foreignObject></g></g></g><g class="nodes"><g transform="translate(185.046875, 93.5)" id="entity-EMPREGADOS-0" class="node default"><g style=""><path fill="#eee" stroke-width="0" stroke="none" d="M-119.546875 -85.5 L119.546875 -85.5 L119.546875 85.5 L-119.546875 85.5"/><path stroke-dasharray="0 0" fill="none" stroke-width="1.3" stroke="#999" d="M-119.546875 -85.5 C-41.152862240028824 -85.5, 37.24115051994235 -85.5, 119.546875 -85.5 M-119.546875 -85.5 C-28.044917389203633 -85.5, 63.457040221592734 -85.5, 119.546875 -85.5 M119.546875 -85.5 C119.546875 -20.630262659078568, 119.546875 44.239474681842864, 119.546875 85.5 M119.546875 -85.5 C119.546875 -43.49766646342681, 119.546875 -1.4953329268536208, 119.546875 85.5 M119.546875 85.5 C26.97296363215682 85.5, -65.60094773568636 85.5, -119.546875 85.5 M119.546875 85.5 C55.30874091999277 85.5, -8.929393160014456 85.5, -119.546875 85.5 M-119.546875 85.5 C-119.546875 34.3108956784639, -119.546875 -16.8782086430722, -119.546875 -85.5 M-119.546875 85.5 C-119.546875 20.44813420849725, -119.546875 -44.6037315830055, -119.546875 -85.5"/></g><g class="row-rect-odd" style=""><path fill="hsl(0, 0%, 100%)" stroke-width="0" stroke="none" d="M-119.546875 -42.75 L119.546875 -42.75 L119.546875 0 L-119.546875 0"/><path stroke-dasharray="0 0" fill="none" stroke-width="1.3" stroke="#999" d="M-119.546875 -42.75 C-41.22791244685018 -42.75, 37.09105010629963 -42.75, 119.546875 -42.75 M-119.546875 -42.75 C-54.30355018425455 -42.75, 10.939774631490906 -42.75, 119.546875 -42.75 M119.546875 -42.75 C119.546875 -31.39575696065576, 119.546875 -20.04151392131152, 119.546875 0 M119.546875 -42.75 C119.546875 -28.985468975401787, 119.546875 -15.22093795080357, 119.546875 0 M119.546875 0 C31.59580912696954 0, -56.35525674606092 0, -119.546875 0 M119.546875 0 C39.20228687361268 0, -41.142301252774644 0, -119.546875 0 M-119.546875 0 C-119.546875 -14.970674281561923, -119.546875 -29.941348563123846, -119.546875 -42.75 M-119.546875 0 C-119.546875 -16.926821800030513, -119.546875 -33.85364360006103, -119.546875 -42.75"/></g><g class="row-rect-even" style=""><path fill="#f4f4f4" stroke-width="0" stroke="none" d="M-119.546875 0 L119.546875 0 L119.546875 42.75 L-119.546875 42.75"/><path stroke-dasharray="0 0" fill="none" stroke-width="1.3" stroke="#999" d="M-119.546875 0 C-67.55255357152785 0, -15.558232143055719 0, 119.546875 0 M-119.546875 0 C-28.520948183234182 0, 62.504978633531636 0, 119.546875 0 M119.546875 0 C119.546875 13.731231343548831, 119.546875 27.462462687097663, 119.546875 42.75 M119.546875 0 C119.546875 8.812033254283747, 119.546875 17.624066508567495, 119.546875 42.75 M119.546875 42.75 C51.827512361892374 42.75, -15.891850276215251 42.75, -119.546875 42.75 M119.546875 42.75 C54.84549683001475 42.75, -9.855881339970495 42.75, -119.546875 42.75 M-119.546875 42.75 C-119.546875 30.96728259890582, -119.546875 19.184565197811633, -119.546875 0 M-119.546875 42.75 C-119.546875 31.05739546702597, -119.546875 19.364790934051936, -119.546875 0"/></g><g class="row-rect-odd" style=""><path fill="hsl(0, 0%, 100%)" stroke-width="0" stroke="none" d="M-119.546875 42.75 L119.546875 42.75 L119.546875 85.5 L-119.546875 85.5"/><path stroke-dasharray="0 0" fill="none" stroke-width="1.3" stroke="#999" d="M-119.546875 42.75 C-46.36113626750708 42.75, 26.824602464985844 42.75, 119.546875 42.75 M-119.546875 42.75 C-40.90904390243645 42.75, 37.7287871951271 42.75, 119.546875 42.75 M119.546875 42.75 C119.546875 58.08493314340187, 119.546875 73.41986628680374, 119.546875 85.5 M119.546875 42.75 C119.546875 57.94527803970839, 119.546875 73.14055607941678, 119.546875 85.5 M119.546875 85.5 C68.03536477897322 85.5, 16.523854557946436 85.5, -119.546875 85.5 M119.546875 85.5 C67.57728320833115 85.5, 15.607691416662306 85.5, -119.546875 85.5 M-119.546875 85.5 C-119.546875 75.06340815202122, -119.546875 64.62681630404245, -119.546875 42.75 M-119.546875 85.5 C-119.546875 71.7044876909055, -119.546875 57.908975381811, -119.546875 42.75"/></g><g style="" transform="translate(-47.640625, -76.125)" class="label name"><foreignObject height="24" width="95.28125"><div style="display: table-cell; white-space: nowrap; line-height: 1.5; max-width: 210px; text-align: start;" xmlns="http://www.w3.org/1999/xhtml"><span class="nodeLabel"><p>EMPREGADOS</p></span></div></foreignObject></g><g style="" transform="translate(-107.046875, -33.375)" class="label attribute-type"><foreignObject height="24" width="19.65625"><div style="display: table-cell; white-space: nowrap; line-height: 1.5; max-width: 117px; text-align: start;" xmlns="http://www.w3.org/1999/xhtml"><span class="nodeLabel"><p>int</p></span></div></foreignObject></g><g style="" transform="translate(-41.671875, -33.375)" class="label attribute-name"><foreignObject height="24" width="68.609375"><div style="display: table-cell; white-space: nowrap; line-height: 1.5; max-width: 162px; text-align: start;" xmlns="http://www.w3.org/1999/xhtml"><span class="nodeLabel"><p>matricula</p></span></div></foreignObject></g><g style="" transform="translate(88.90625, -33.375)" class="label attribute-keys"><foreignObject height="24" width="18.140625"><div style="display: table-cell; white-space: nowrap; line-height: 1.5; max-width: 122px; text-align: start;" xmlns="http://www.w3.org/1999/xhtml"><span class="nodeLabel"><p>PK</p></span></div></foreignObject></g><g style="" transform="translate(132.046875, -33.375)" class="label attribute-comment"><foreignObject height="0" width="0"><div style="display: table-cell; white-space: nowrap; line-height: 1.5; max-width: 100px; text-align: start;" xmlns="http://www.w3.org/1999/xhtml"><span class="nodeLabel"></span></div></foreignObject></g><g style="" transform="translate(-107.046875, 9.375)" class="label attribute-type"><foreignObject height="24" width="40.375"><div style="display: table-cell; white-space: nowrap; line-height: 1.5; max-width: 136px; text-align: start;" xmlns="http://www.w3.org/1999/xhtml"><span class="nodeLabel"><p>string</p></span></div></foreignObject></g><g style="" transform="translate(-41.671875, 9.375)" class="label attribute-name"><foreignObject height="24" width="39.34375"><div style="display: table-cell; white-space: nowrap; line-height: 1.5; max-width: 137px; text-align: start;" xmlns="http://www.w3.org/1999/xhtml"><span class="nodeLabel"><p>nome</p></span></div></foreignObject></g><g style="" transform="translate(88.90625, 9.375)" class="label attribute-keys"><foreignObject height="0" width="0"><div style="display: table-cell; white-space: nowrap; line-height: 1.5; max-width: 100px; text-align: start;" xmlns="http://www.w3.org/1999/xhtml"><span class="nodeLabel"></span></div></foreignObject></g><g style="" transform="translate(132.046875, 9.375)" class="label attribute-comment"><foreignObject height="0" width="0"><div style="display: table-cell; white-space: nowrap; line-height: 1.5; max-width: 100px; text-align: start;" xmlns="http://www.w3.org/1999/xhtml"><span class="nodeLabel"></span></div></foreignObject></g><g style="" transform="translate(-107.046875, 52.125)" class="label attribute-type"><foreignObject height="24" width="32.390625"><div style="display: table-cell; white-space: nowrap; line-height: 1.5; max-width: 127px; text-align: start;" xmlns="http://www.w3.org/1999/xhtml"><span class="nodeLabel"><p>date</p></span></div></foreignObject></g><g style="" transform="translate(-41.671875, 52.125)" class="label attribute-name"><foreignObject height="24" width="105.578125"><div style="display: table-cell; white-space: nowrap; line-height: 1.5; max-width: 194px; text-align: start;" xmlns="http://www.w3.org/1999/xhtml"><span class="nodeLabel"><p>data_admissao</p></span></div></foreignObject></g><g style="" transform="translate(88.90625, 52.125)" class="label attribute-keys"><foreignObject height="0" width="0"><div style="display: table-cell; white-space: nowrap; line-height: 1.5; max-width: 100px; text-align: start;" xmlns="http://www.w3.org/1999/xhtml"><span class="nodeLabel"></span></div></foreignObject></g><g style="" transform="translate(132.046875, 52.125)" class="label attribute-comment"><foreignObject height="0" width="0"><div style="display: table-cell; white-space: nowrap; line-height: 1.5; max-width: 100px; text-align: start;" xmlns="http://www.w3.org/1999/xhtml"><span class="nodeLabel"></span></div></foreignObject></g><g class="divider"><path stroke-dasharray="0 0" fill="none" stroke-width="1.3" stroke="#999" d="M-119.546875 -42.75 C-29.766623671458987 -42.75, 60.013627657082026 -42.75, 119.546875 -42.75 M-119.546875 -42.75 C-39.79772316955288 -42.75, 39.95142866089424 -42.75, 119.546875 -42.75"/></g><g class="divider"><path stroke-dasharray="0 0" fill="none" stroke-width="1.3" stroke="#999" d="M-54.171875 -42.75 C-54.171875 -2.0831829930750914, -54.171875 38.58363401384982, -54.171875 85.5 M-54.171875 -42.75 C-54.171875 -13.865384911239808, -54.171875 15.019230177520384, -54.171875 85.5"/></g><g class="divider"><path stroke-dasharray="0 0" fill="none" stroke-width="1.3" stroke="#999" d="M76.40625 -42.75 C76.40625 -9.465554396428494, 76.40625 23.81889120714301, 76.40625 85.5 M76.40625 -42.75 C76.40625 1.115522529969148, 76.40625 44.981045059938296, 76.40625 85.5"/></g><g class="divider"><path stroke-dasharray="0 0" fill="none" stroke-width="1.3" stroke="#999" d="M-119.546875 -42.75 C-55.144970115193175 -42.75, 9.25693476961365 -42.75, 119.546875 -42.75 M-119.546875 -42.75 C-24.29789960591529 -42.75, 70.95107578816942 -42.75, 119.546875 -42.75"/></g></g><g transform="translate(185.046875, 365.5)" id="entity-DEPENDENTES-1" class="node default"><g style=""><path fill="#eee" stroke-width="0" stroke="none" d="M-177.046875 -85.5 L177.046875 -85.5 L177.046875 85.5 L-177.046875 85.5"/><path stroke-dasharray="0 0" fill="none" stroke-width="1.3" stroke="#999" d="M-177.046875 -85.5 C-50.41814571057364 -85.5, 76.21058357885272 -85.5, 177.046875 -85.5 M-177.046875 -85.5 C-78.79054517465133 -85.5, 19.465784650697344 -85.5, 177.046875 -85.5 M177.046875 -85.5 C177.046875 -26.88604145884353, 177.046875 31.727917082312942, 177.046875 85.5 M177.046875 -85.5 C177.046875 -41.03914529403081, 177.046875 3.42170941193838, 177.046875 85.5 M177.046875 85.5 C80.3689019119275 85.5, -16.30907117614501 85.5, -177.046875 85.5 M177.046875 85.5 C58.848354887257486 85.5, -59.35016522548503 85.5, -177.046875 85.5 M-177.046875 85.5 C-177.046875 22.091282064550505, -177.046875 -41.31743587089899, -177.046875 -85.5 M-177.046875 85.5 C-177.046875 29.323393470614278, -177.046875 -26.853213058771445, -177.046875 -85.5"/></g><g class="row-rect-odd" style=""><path fill="hsl(0, 0%, 100%)" stroke-width="0" stroke="none" d="M-177.046875 -42.75 L177.046875 -42.75 L177.046875 0 L-177.046875 0"/><path stroke-dasharray="0 0" fill="none" stroke-width="1.3" stroke="#999" d="M-177.046875 -42.75 C-81.29568172074893 -42.75, 14.455511558502138 -42.75, 177.046875 -42.75 M-177.046875 -42.75 C-95.85627944124913 -42.75, -14.665683882498257 -42.75, 177.046875 -42.75 M177.046875 -42.75 C177.046875 -26.72023757317663, 177.046875 -10.690475146353258, 177.046875 0 M177.046875 -42.75 C177.046875 -26.775832354269976, 177.046875 -10.801664708539953, 177.046875 0 M177.046875 0 C40.56192723652313 0, -95.92302052695374 0, -177.046875 0 M177.046875 0 C105.91517948239922 0, 34.78348396479845 0, -177.046875 0 M-177.046875 0 C-177.046875 -9.604731913361043, -177.046875 -19.209463826722086, -177.046875 -42.75 M-177.046875 0 C-177.046875 -12.093880688856625, -177.046875 -24.18776137771325, -177.046875 -42.75"/></g><g class="row-rect-even" style=""><path fill="#f4f4f4" stroke-width="0" stroke="none" d="M-177.046875 0 L177.046875 0 L177.046875 42.75 L-177.046875 42.75"/><path stroke-dasharray="0 0" fill="none" stroke-width="1.3" stroke="#999" d="M-177.046875 0 C-49.283889563662726 0, 78.47909587267455 0, 177.046875 0 M-177.046875 0 C-96.34627630222413 0, -15.645677604448252 0, 177.046875 0 M177.046875 0 C177.046875 11.453425968227977, 177.046875 22.906851936455954, 177.046875 42.75 M177.046875 0 C177.046875 16.413909224185986, 177.046875 32.82781844837197, 177.046875 42.75 M177.046875 42.75 C66.51849272528735 42.75, -44.00988954942531 42.75, -177.046875 42.75 M177.046875 42.75 C86.97256213576817 42.75, -3.1017507284636565 42.75, -177.046875 42.75 M-177.046875 42.75 C-177.046875 26.413999186635287, -177.046875 10.077998373270574, -177.046875 0 M-177.046875 42.75 C-177.046875 30.223030851443596, -177.046875 17.696061702887196, -177.046875 0"/></g><g class="row-rect-odd" style=""><path fill="hsl(0, 0%, 100%)" stroke-width="0" stroke="none" d="M-177.046875 42.75 L177.046875 42.75 L177.046875 85.5 L-177.046875 85.5"/><path stroke-dasharray="0 0" fill="none" stroke-width="1.3" stroke="#999" d="M-177.046875 42.75 C-86.96452981044237 42.75, 3.1178153791152567 42.75, 177.046875 42.75 M-177.046875 42.75 C-48.48575404705397 42.75, 80.07536690589205 42.75, 177.046875 42.75 M177.046875 42.75 C177.046875 55.33562001643928, 177.046875 67.92124003287856, 177.046875 85.5 M177.046875 42.75 C177.046875 57.85081397897098, 177.046875 72.95162795794197, 177.046875 85.5 M177.046875 85.5 C47.33469703752604 85.5, -82.37748092494792 85.5, -177.046875 85.5 M177.046875 85.5 C87.74452859058489 85.5, -1.557817818830216 85.5, -177.046875 85.5 M-177.046875 85.5 C-177.046875 72.82084904130558, -177.046875 60.14169808261114, -177.046875 42.75 M-177.046875 85.5 C-177.046875 75.41328740981633, -177.046875 65.32657481963267, -177.046875 42.75"/></g><g style="" transform="translate(-50.1171875, -76.125)" class="label name"><foreignObject height="24" width="100.234375"><div style="display: table-cell; white-space: nowrap; line-height: 1.5; max-width: 214px; text-align: start;" xmlns="http://www.w3.org/1999/xhtml"><span class="nodeLabel"><p>DEPENDENTES</p></span></div></foreignObject></g><g style="" transform="translate(-164.546875, -33.375)" class="label attribute-type"><foreignObject height="24" width="19.65625"><div style="display: table-cell; white-space: nowrap; line-height: 1.5; max-width: 117px; text-align: start;" xmlns="http://www.w3.org/1999/xhtml"><span class="nodeLabel"><p>int</p></span></div></foreignObject></g><g style="" transform="translate(-99.171875, -33.375)" class="label attribute-name"><foreignObject height="24" width="68.609375"><div style="display: table-cell; white-space: nowrap; line-height: 1.5; max-width: 162px; text-align: start;" xmlns="http://www.w3.org/1999/xhtml"><span class="nodeLabel"><p>matricula</p></span></div></foreignObject></g><g style="" transform="translate(-2.953125, -33.375)" class="label attribute-keys"><foreignObject height="24" width="18.140625"><div style="display: table-cell; white-space: nowrap; line-height: 1.5; max-width: 122px; text-align: start;" xmlns="http://www.w3.org/1999/xhtml"><span class="nodeLabel"><p>PK</p></span></div></foreignObject></g><g style="" transform="translate(40.1875, -33.375)" class="label attribute-comment"><foreignObject height="24" width="124.359375"><div style="display: table-cell; white-space: nowrap; line-height: 1.5; max-width: 213px; text-align: start;" xmlns="http://www.w3.org/1999/xhtml"><span class="nodeLabel"><p>FK p/ empregado</p></span></div></foreignObject></g><g style="" transform="translate(-164.546875, 9.375)" class="label attribute-type"><foreignObject height="24" width="19.65625"><div style="display: table-cell; white-space: nowrap; line-height: 1.5; max-width: 117px; text-align: start;" xmlns="http://www.w3.org/1999/xhtml"><span class="nodeLabel"><p>int</p></span></div></foreignObject></g><g style="" transform="translate(-99.171875, 9.375)" class="label attribute-name"><foreignObject height="24" width="71.21875"><div style="display: table-cell; white-space: nowrap; line-height: 1.5; max-width: 164px; text-align: start;" xmlns="http://www.w3.org/1999/xhtml"><span class="nodeLabel"><p>sequencia</p></span></div></foreignObject></g><g style="" transform="translate(-2.953125, 9.375)" class="label attribute-keys"><foreignObject height="24" width="18.140625"><div style="display: table-cell; white-space: nowrap; line-height: 1.5; max-width: 122px; text-align: start;" xmlns="http://www.w3.org/1999/xhtml"><span class="nodeLabel"><p>PK</p></span></div></foreignObject></g><g style="" transform="translate(40.1875, 9.375)" class="label attribute-comment"><foreignObject height="24" width="96.421875"><div style="display: table-cell; white-space: nowrap; line-height: 1.5; max-width: 186px; text-align: start;" xmlns="http://www.w3.org/1999/xhtml"><span class="nodeLabel"><p>diferenciador</p></span></div></foreignObject></g><g style="" transform="translate(-164.546875, 52.125)" class="label attribute-type"><foreignObject height="24" width="40.375"><div style="display: table-cell; white-space: nowrap; line-height: 1.5; max-width: 136px; text-align: start;" xmlns="http://www.w3.org/1999/xhtml"><span class="nodeLabel"><p>string</p></span></div></foreignObject></g><g style="" transform="translate(-99.171875, 52.125)" class="label attribute-name"><foreignObject height="24" width="39.34375"><div style="display: table-cell; white-space: nowrap; line-height: 1.5; max-width: 137px; text-align: start;" xmlns="http://www.w3.org/1999/xhtml"><span class="nodeLabel"><p>nome</p></span></div></foreignObject></g><g style="" transform="translate(-2.953125, 52.125)" class="label attribute-keys"><foreignObject height="0" width="0"><div style="display: table-cell; white-space: nowrap; line-height: 1.5; max-width: 100px; text-align: start;" xmlns="http://www.w3.org/1999/xhtml"><span class="nodeLabel"></span></div></foreignObject></g><g style="" transform="translate(40.1875, 52.125)" class="label attribute-comment"><foreignObject height="0" width="0"><div style="display: table-cell; white-space: nowrap; line-height: 1.5; max-width: 100px; text-align: start;" xmlns="http://www.w3.org/1999/xhtml"><span class="nodeLabel"></span></div></foreignObject></g><g class="divider"><path stroke-dasharray="0 0" fill="none" stroke-width="1.3" stroke="#999" d="M-177.046875 -42.75 C-66.04304588089116 -42.75, 44.96078323821769 -42.75, 177.046875 -42.75 M-177.046875 -42.75 C-80.52195754480702 -42.75, 16.002959910385954 -42.75, 177.046875 -42.75"/></g><g class="divider"><path stroke-dasharray="0 0" fill="none" stroke-width="1.3" stroke="#999" d="M-111.671875 -42.75 C-111.671875 -4.106518232881449, -111.671875 34.5369635342371, -111.671875 85.5 M-111.671875 -42.75 C-111.671875 -8.655142054190733, -111.671875 25.439715891618533, -111.671875 85.5"/></g><g class="divider"><path stroke-dasharray="0 0" fill="none" stroke-width="1.3" stroke="#999" d="M-15.453125 -42.75 C-15.453125 2.9998704236886056, -15.453125 48.74974084737721, -15.453125 85.5 M-15.453125 -42.75 C-15.453125 3.1138392918656805, -15.453125 48.97767858373136, -15.453125 85.5"/></g><g class="divider"><path stroke-dasharray="0 0" fill="none" stroke-width="1.3" stroke="#999" d="M27.6875 -42.75 C27.6875 -5.493927752661364, 27.6875 31.762144494677273, 27.6875 85.5 M27.6875 -42.75 C27.6875 -16.23568849543771, 27.6875 10.27862300912458, 27.6875 85.5"/></g><g class="divider"><path stroke-dasharray="0 0" fill="none" stroke-width="1.3" stroke="#999" d="M-177.046875 -42.75 C-63.51089813433822 -42.75, 50.02507873132356 -42.75, 177.046875 -42.75 M-177.046875 -42.75 C-75.44594775552609 -42.75, 26.154979488947816 -42.75, 177.046875 -42.75"/></g></g></g></g></g></svg>