<svg aria-roledescription="er" role="graphics-document document" viewBox="0 0 370.09375 459" style="max-width: 370.094px; background-color: transparent;" class="erDiagram" xmlns:xlink="http://www.w3.org/1999/xlink" xmlns="http://www.w3.org/2000/svg" width="100%" id="my-svg"><style>#my-svg{font-family:"trebuchet ms",verdana,arial,sans-serif;font-size:16px;fill:#000000;}@keyframes edge-animation-frame{from{stroke-dashoffset:0;}}@keyframes dash{to{stroke-dashoffset:0;}}#my-svg .edge-animation-slow{stroke-dasharray:9,5!important;stroke-dashoffset:900;animation:dash 50s linear infinite;stroke-linecap:round;}#my-svg .edge-animation-fast{stroke-dasharray:9,5!important;stroke-dashoffset:900;animation:dash 20s linear infinite;stroke-linecap:round;}#my-svg .error-icon{fill:#552222;}#my-svg .error-text{fill:#552222;stroke:#552222;}#my-svg .edge-thickness-normal{stroke-width:1px;}#my-svg .edge-thickness-thick{stroke-width:3.5px;}#my-svg .edge-pattern-solid{stroke-dasharray:0;}#my-svg .edge-thickness-invisible{stroke-width:0;fill:none;}#my-svg .edge-pattern-dashed{stroke-dasharray:3;}#my-svg .edge-pattern-dotted{stroke-dasharray:2;}#my-svg .marker{fill:#666;stroke:#666;}#my-svg .marker.cross{stroke:#666;}#my-svg svg{font-family:"trebuchet ms",verdana,arial,sans-serif;font-size:16px;}#my-svg p{margin:0;}#my-svg .entityBox{fill:#eee;stroke:#999;}#my-svg .relationshipLabelBox{fill:hsl(-160, 0%, 93.3333333333%);opacity:0.7;background-color:hsl(-160, 0%, 93.3333333333%);}#my-svg .relationshipLabelBox rect{opacity:0.5;}#my-svg .labelBkg{background-color:rgba(237.9999999999, 237.9999999999, 237.9999999999, 0.5);}#my-svg .edgeLabel .label{fill:#999;font-size:14px;}#my-svg .label{font-family:"trebuchet ms",verdana,arial,sans-serif;color:#000000;}#my-svg .edge-pattern-dashed{stroke-dasharray:8,8;}#my-svg .node rect,#my-svg .node circle,#my-svg .node ellipse,#my-svg .node polygon{fill:#eee;stroke:#999;stroke-width:1px;}#my-svg .relationshipLine{stroke:#666;stroke-width:1;fill:none;}#my-svg .marker{fill:none!important;stroke:#666!important;stroke-width:1;}#my-svg :root{--mermaid-font-family:"trebuchet ms",verdana,arial,sans-serif;}</style><g><defs><marker orient="auto" markerHeight="18" markerWidth="18" refY="9" refX="0" class="marker onlyOne er" id="my-svg_er-onlyOneStart"><path d="M9,0 L9,18 M15,0 L15,18"/></marker></defs><defs><marker orient="auto" markerHeight="18" markerWidth="18" refY="9" refX="18" class="marker onlyOne er" id="my-svg_er-onlyOneEnd"><path d="M3,0 L3,18 M9,0 L9,18"/></marker></defs><defs><marker orient="auto" markerHeight="18" markerWidth="30" refY="9" refX="0" class="marker zeroOrOne er" id="my-svg_er-zeroOrOneStart"><circle r="6" cy="9" cx="21" fill="white"/><path d="M9,0 L9,18"/></marker></defs><defs><marker orient="auto" markerHeight="18" markerWidth="30" refY="9" refX="30" class="marker zeroOrOne er" id="my-svg_er-zeroOrOneEnd"><circle r="6" cy="9" cx="9" fill="white"/><path d="M21,0 L21,18"/></marker></defs><defs><marker orient="auto" markerHeight="36" markerWidth="45" refY="18" refX="18" class="marker oneOrMore er" id="my-svg_er-oneOrMoreStart"><path d="M0,18 Q 18,0 36,18 Q 18,36 0,18 M42,9 L42,27"/></marker></defs><defs><marker orient="auto" markerHeight="36" markerWidth="45" refY="18" refX="27" class="marker oneOrMore er" id="my-svg_er-oneOrMoreEnd"><path d="M3,9 L3,27 M9,18 Q27,0 45,18 Q27,36 9,18"/></marker></defs><defs><marker orient="auto" markerHeight="36" markerWidth="57" refY="18" refX="18" class="marker zeroOrMore er" id="my-svg_er-zeroOrMoreStart"><circle r="6" cy="18" cx="48" fill="white"/><path d="M0,18 Q18,0 36,18 Q18,36 0,18"/></marker></defs><defs><marker orient="auto" markerHeight="36" markerWidth="57" refY="18" refX="39" class="marker zeroOrMore er" id="my-svg_er-zeroOrMoreEnd"><circle r="6" cy="18" cx="9" fill="white"/><path d="M21,18 Q39,0 57,18 Q39,36 21,18"/></marker></defs><g class="root"><g class="clusters"/><g class="edgePaths"><path marker-end="url(#my-svg_er-zeroOrMoreEnd)" marker-start="url(#my-svg_er-onlyOneStart)" style="" class="edge-thickness-normal edge-pattern-solid relationshipLine" id="id_entity-EMPREGADOS-0_entity-DEPENDENTES-1_0" d="M185.047,179L185.047,187.417C185.047,195.833,185.047,212.667,185.047,229.5C185.047,246.333,185.047,263.167,185.047,271.583L185.047,280"/></g><g class="edgeLabels"><g transform="translate(185.046875, 229.5)" class="edgeLabel"><g transform="translate(-19.1484375, -10.5)" class="label"><foreignObject height="21" width="38.296875"><div style="display: table-cell; white-space: nowrap; line-height: 1.5; max-width: 200px; text-align: center;" class="labelBkg" xmlns="http://www.w3.org/1999/xhtml"><span class="edgeLabel"><p>possui</p></span></div></foreignObject></g></g></g><g class="nodes"><g transform="translate(185.046875, 93.5)" id="entity-EMPREGADOS-0" class="node default"><g style=""><path fill="#eee" stroke-width="0" stroke="none" d="M-119.546875 -85.5 L119.546875 -85.5 L119.546875 85.5 L-119.546875 85.5"/><path stroke-dasharray="0 0" fill="none" stroke-width="1.3" stroke="#999" d="M-119.546875 -85.5 C-46.26510775406163 -85.5, 27.016659491876737 -85.5, 119.546875 -85.5 M-119.546875 -85.5 C-59.56884691713336 -85.5, 0.4091811657332869 -85.5, 119.546875 -85.5 M119.546875 -85.5 C119.546875 -22.940706799876246, 119.546875 39.61858640024751, 119.546875 85.5 M119.546875 -85.5 C119.546875 -37.468572583781906, 119.546875 10.562854832436187, 119.546875 85.5 M119.546875 85.5 C64.91307703769141 85.5, 10.279279075382831 85.5, -119.546875 85.5 M119.546875 85.5 C43.87997470755795 85.5, -31.786925584884102 85.5, -119.546875 85.5 M-119.546875 85.5 C-119.546875 40.92591201136965, -119.546875 -3.6481759772607063, -119.546875 -85.5 M-119.546875 85.5 C-119.546875 35.08437463218031, -119.546875 -15.331250735639387, -119.546875 -85.5"/></g><g class="row-rect-odd" style=""><path fill="hsl(0, 0%, 100%)" stroke-width="0" stroke="none" d="M-119.546875 -42.75 L119.546875 -42.75 L119.546875 0 L-119.546875 0"/><path stroke-dasharray="0 0" fill="none" stroke-width="1.3" stroke="#999" d="M-119.546875 -42.75 C-67.01756860892702 -42.75, -14.488262217854043 -42.75, 119.546875 -42.75 M-119.546875 -42.75 C-64.85880876480483 -42.75, -10.170742529609669 -42.75, 119.546875 -42.75 M119.546875 -42.75 C119.546875 -29.83699958464203, 119.546875 -16.923999169284055, 119.546875 0 M119.546875 -42.75 C119.546875 -31.554628030149136, 119.546875 -20.35925606029827, 119.546875 0 M119.546875 0 C70.23026897056374 0, 20.91366294112747 0, -119.546875 0 M119.546875 0 C31.600832709097105 0, -56.34520958180579 0, -119.546875 0 M-119.546875 0 C-119.546875 -14.852402612015206, -119.546875 -29.704805224030412, -119.546875 -42.75 M-119.546875 0 C-119.546875 -12.935755718405622, -119.546875 -25.871511436811243, -119.546875 -42.75"/></g><g class="row-rect-even" style=""><path fill="#f4f4f4" stroke-width="0" stroke="none" d="M-119.546875 0 L119.546875 0 L119.546875 42.75 L-119.546875 42.75"/><path stroke-dasharray="0 0" fill="none" stroke-width="1.3" stroke="#999" d="M-119.546875 0 C-41.203262612931454 0, 37.14034977413709 0, 119.546875 0 M-119.546875 0 C-64.45311347918337 0, -9.35935195836673 0, 119.546875 0 M119.546875 0 C119.546875 13.453561598872556, 119.546875 26.90712319774511, 119.546875 42.75 M119.546875 0 C119.546875 9.334556688750402, 119.546875 18.669113377500803, 119.546875 42.75 M119.546875 42.75 C53.260105872832185 42.75, -13.02666325433563 42.75, -119.546875 42.75 M119.546875 42.75 C29.506922102875706 42.75, -60.53303079424859 42.75, -119.546875 42.75 M-119.546875 42.75 C-119.546875 29.366583548960683, -119.546875 15.983167097921367, -119.546875 0 M-119.546875 42.75 C-119.546875 29.346733462490945, -119.546875 15.943466924981895, -119.546875 0"/></g><g class="row-rect-odd" style=""><path fill="hsl(0, 0%, 100%)" stroke-width="0" stroke="none" d="M-119.546875 42.75 L119.546875 42.75 L119.546875 85.5 L-119.546875 85.5"/><path stroke-dasharray="0 0" fill="none" stroke-width="1.3" stroke="#999" d="M-119.546875 42.75 C-54.59476134351473 42.75, 10.357352312970534 42.75, 119.546875 42.75 M-119.546875 42.75 C-62.86060556509523 42.75, -6.174336130190454 42.75, 119.546875 42.75 M119.546875 42.75 C119.546875 58.24775577702302, 119.546875 73.74551155404605, 119.546875 85.5 M119.546875 42.75 C119.546875 58.366570936283786, 119.546875 73.98314187256757, 119.546875 85.5 M119.546875 85.5 C69.19667553558531 85.5, 18.846476071170628 85.5, -119.546875 85.5 M119.546875 85.5 C27.91615992226245 85.5, -63.7145551554751 85.5, -119.546875 85.5 M-119.546875 85.5 C-119.546875 73.00987702727909, -119.546875 60.51975405455818, -119.546875 42.75 M-119.546875 85.5 C-119.546875 73.62433083509538, -119.546875 61.74866167019074, -119.546875 42.75"/></g><g style="" transform="translate(-47.640625, -76.125)" class="label name"><foreignObject height="24" width="95.28125"><div style="display: table-cell; white-space: nowrap; line-height: 1.5; max-width: 210px; text-align: start;" xmlns="http://www.w3.org/1999/xhtml"><span class="nodeLabel"><p>EMPREGADOS</p></span></div></foreignObject></g><g style="" transform="translate(-107.046875, -33.375)" class="label attribute-type"><foreignObject height="24" width="19.65625"><div style="display: table-cell; white-space: nowrap; line-height: 1.5; max-width: 117px; text-align: start;" xmlns="http://www.w3.org/1999/xhtml"><span class="nodeLabel"><p>int</p></span></div></foreignObject></g><g style="" transform="translate(-41.671875, -33.375)" class="label attribute-name"><foreignObject height="24" width="68.609375"><div style="display: table-cell; white-space: nowrap; line-height: 1.5; max-width: 162px; text-align: start;" xmlns="http://www.w3.org/1999/xhtml"><span class="nodeLabel"><p>matricula</p></span></div></foreignObject></g><g style="" transform="translate(88.90625, -33.375)" class="label attribute-keys"><foreignObject height="24" width="18.140625"><div style="display: table-cell; white-space: nowrap; line-height: 1.5; max-width: 122px; text-align: start;" xmlns="http://www.w3.org/1999/xhtml"><span class="nodeLabel"><p>PK</p></span></div></foreignObject></g><g style="" transform="translate(132.046875, -33.375)" class="label attribute-comment"><foreignObject height="0" width="0"><div style="display: table-cell; white-space: nowrap; line-height: 1.5; max-width: 100px; text-align: start;" xmlns="http://www.w3.org/1999/xhtml"><span class="nodeLabel"></span></div></foreignObject></g><g style="" transform="translate(-107.046875, 9.375)" class="label attribute-type"><foreignObject height="24" width="40.375"><div style="display: table-cell; white-space: nowrap; line-height: 1.5; max-width: 136px; text-align: start;" xmlns="http://www.w3.org/1999/xhtml"><span class="nodeLabel"><p>string</p></span></div></foreignObject></g><g style="" transform="translate(-41.671875, 9.375)" class="label attribute-name"><foreignObject height="24" width="39.34375"><div style="display: table-cell; white-space: nowrap; line-height: 1.5; max-width: 137px; text-align: start;" xmlns="http://www.w3.org/1999/xhtml"><span class="nodeLabel"><p>nome</p></span></div></foreignObject></g><g style="" transform="translate(88.90625, 9.375)" class="label attribute-keys"><foreignObject height="0" width="0"><div style="display: table-cell; white-space: nowrap; line-height: 1.5; max-width: 100px; text-align: start;" xmlns="http://www.w3.org/1999/xhtml"><span class="nodeLabel"></span></div></foreignObject></g><g style="" transform="translate(132.046875, 9.375)" class="label attribute-comment"><foreignObject height="0" width="0"><div style="display: table-cell; white-space: nowrap; line-height: 1.5; max-width: 100px; text-align: start;" xmlns="http://www.w3.org/1999/xhtml"><span class="nodeLabel"></span></div></foreignObject></g><g style="" transform="translate(-107.046875, 52.125)" class="label attribute-type"><foreignObject height="24" width="32.390625"><div style="display: table-cell; white-space: nowrap; line-height: 1.5; max-width: 127px; text-align: start;" xmlns="http://www.w3.org/1999/xhtml"><span class="nodeLabel"><p>date</p></span></div></foreignObject></g><g style="" transform="translate(-41.671875, 52.125)" class="label attribute-name"><foreignObject height="24" width="105.578125"><div style="display: table-cell; white-space: nowrap; line-height: 1.5; max-width: 194px; text-align: start;" xmlns="http://www.w3.org/1999/xhtml"><span class="nodeLabel"><p>data_admissao</p></span></div></foreignObject></g><g style="" transform="translate(88.90625, 52.125)" class="label attribute-keys"><foreignObject height="0" width="0"><div style="display: table-cell; white-space: nowrap; line-height: 1.5; max-width: 100px; text-align: start;" xmlns="http://www.w3.org/1999/xhtml"><span class="nodeLabel"></span></div></foreignObject></g><g style="" transform="translate(132.046875, 52.125)" class="label attribute-comment"><foreignObject height="0" width="0"><div style="display: table-cell; white-space: nowrap; line-height: 1.5; max-width: 100px; text-align: start;" xmlns="http://www.w3.org/1999/xhtml"><span class="nodeLabel"></span></div></foreignObject></g><g class="divider"><path stroke-dasharray="0 0" fill="none" stroke-width="1.3" stroke="#999" d="M-119.546875 -42.75 C-37.71708725550269 -42.75, 44.11270048899462 -42.75, 119.546875 -42.75 M-119.546875 -42.75 C-60.62234342787828 -42.75, -1.6978118557565551 -42.75, 119.546875 -42.75"/></g><g class="divider"><path stroke-dasharray="0 0" fill="none" stroke-width="1.3" stroke="#999" d="M-54.171875 -42.75 C-54.171875 1.059113090796238, -54.171875 44.868226181592476, -54.171875 85.5 M-54.171875 -42.75 C-54.171875 8.180469067960509, -54.171875 59.11093813592102, -54.171875 85.5"/></g><g class="divider"><path stroke-dasharray="0 0" fill="none" stroke-width="1.3" stroke="#999" d="M76.40625 -42.75 C76.40625 6.508577203244457, 76.40625 55.76715440648891, 76.40625 85.5 M76.40625 -42.75 C76.40625 -6.548847825729538, 76.40625 29.652304348540923, 76.40625 85.5"/></g><g class="divider"><path stroke-dasharray="0 0" fill="none" stroke-width="1.3" stroke="#999" d="M-119.546875 -42.75 C-48.217498057279556 -42.75, 23.111878885440888 -42.75, 119.546875 -42.75 M-119.546875 -42.75 C-55.447443665251456 -42.75, 8.651987669497089 -42.75, 119.546875 -42.75"/></g></g><g transform="translate(185.046875, 365.5)" id="entity-DEPENDENTES-1" class="node default"><g style=""><path fill="#eee" stroke-width="0" stroke="none" d="M-177.046875 -85.5 L177.046875 -85.5 L177.046875 85.5 L-177.046875 85.5"/><path stroke-dasharray="0 0" fill="none" stroke-width="1.3" stroke="#999" d="M-177.046875 -85.5 C-80.13607542538684 -85.5, 16.77472414922633 -85.5, 177.046875 -85.5 M-177.046875 -85.5 C-68.42494212086822 -85.5, 40.19699075826355 -85.5, 177.046875 -85.5 M177.046875 -85.5 C177.046875 -45.5606359620878, 177.046875 -5.621271924175602, 177.046875 85.5 M177.046875 -85.5 C177.046875 -26.43482767718293, 177.046875 32.63034464563414, 177.046875 85.5 M177.046875 85.5 C94.19454328248591 85.5, 11.34221156497182 85.5, -177.046875 85.5 M177.046875 85.5 C72.41836496026657 85.5, -32.210145079466855 85.5, -177.046875 85.5 M-177.046875 85.5 C-177.046875 17.536503532580483, -177.046875 -50.426992934839035, -177.046875 -85.5 M-177.046875 85.5 C-177.046875 30.728558343219873, -177.046875 -24.042883313560253, -177.046875 -85.5"/></g><g class="row-rect-odd" style=""><path fill="hsl(0, 0%, 100%)" stroke-width="0" stroke="none" d="M-177.046875 -42.75 L177.046875 -42.75 L177.046875 0 L-177.046875 0"/><path stroke-dasharray="0 0" fill="none" stroke-width="1.3" stroke="#999" d="M-177.046875 -42.75 C-103.47453372313983 -42.75, -29.902192446279656 -42.75, 177.046875 -42.75 M-177.046875 -42.75 C-102.46002498725728 -42.75, -27.87317497451457 -42.75, 177.046875 -42.75 M177.046875 -42.75 C177.046875 -25.95166135678879, 177.046875 -9.15332271357758, 177.046875 0 M177.046875 -42.75 C177.046875 -32.50953094783913, 177.046875 -22.269061895678266, 177.046875 0 M177.046875 0 C74.85159151113362 0, -27.34369197773276 0, -177.046875 0 M177.046875 0 C56.941669524277 0, -63.16353595144599 0, -177.046875 0 M-177.046875 0 C-177.046875 -17.065715464246466, -177.046875 -34.13143092849293, -177.046875 -42.75 M-177.046875 0 C-177.046875 -14.79263246276694, -177.046875 -29.58526492553388, -177.046875 -42.75"/></g><g class="row-rect-even" style=""><path fill="#f4f4f4" stroke-width="0" stroke="none" d="M-177.046875 0 L177.046875 0 L177.046875 42.75 L-177.046875 42.75"/><path stroke-dasharray="0 0" fill="none" stroke-width="1.3" stroke="#999" d="M-177.046875 0 C-101.05099819280825 0, -25.055121385616502 0, 177.046875 0 M-177.046875 0 C-91.36657956833136 0, -5.686284136662721 0, 177.046875 0 M177.046875 0 C177.046875 9.957823761825791, 177.046875 19.915647523651582, 177.046875 42.75 M177.046875 0 C177.046875 15.227330018636607, 177.046875 30.454660037273214, 177.046875 42.75 M177.046875 42.75 C44.684419978900706 42.75, -87.67803504219859 42.75, -177.046875 42.75 M177.046875 42.75 C48.12035266854369 42.75, -80.80616966291262 42.75, -177.046875 42.75 M-177.046875 42.75 C-177.046875 27.403656202201994, -177.046875 12.057312404403984, -177.046875 0 M-177.046875 42.75 C-177.046875 27.05524385573218, -177.046875 11.360487711464359, -177.046875 0"/></g><g class="row-rect-odd" style=""><path fill="hsl(0, 0%, 100%)" stroke-width="0" stroke="none" d="M-177.046875 42.75 L177.046875 42.75 L177.046875 85.5 L-177.046875 85.5"/><path stroke-dasharray="0 0" fill="none" stroke-width="1.3" stroke="#999" d="M-177.046875 42.75 C-87.85222580988507 42.75, 1.3424233802298602 42.75, 177.046875 42.75 M-177.046875 42.75 C-63.11928357556627 42.75, 50.80830784886746 42.75, 177.046875 42.75 M177.046875 42.75 C177.046875 52.694598670800374, 177.046875 62.63919734160075, 177.046875 85.5 M177.046875 42.75 C177.046875 55.714626246782224, 177.046875 68.67925249356445, 177.046875 85.5 M177.046875 85.5 C92.74923698405904 85.5, 8.451598968118077 85.5, -177.046875 85.5 M177.046875 85.5 C88.69101867376982 85.5, 0.3351623475396366 85.5, -177.046875 85.5 M-177.046875 85.5 C-177.046875 73.6861472879773, -177.046875 61.872294575954605, -177.046875 42.75 M-177.046875 85.5 C-177.046875 73.45583493921723, -177.046875 61.41166987843445, -177.046875 42.75"/></g><g style="" transform="translate(-50.1171875, -76.125)" class="label name"><foreignObject height="24" width="100.234375"><div style="display: table-cell; white-space: nowrap; line-height: 1.5; max-width: 214px; text-align: start;" xmlns="http://www.w3.org/1999/xhtml"><span class="nodeLabel"><p>DEPENDENTES</p></span></div></foreignObject></g><g style="" transform="translate(-164.546875, -33.375)" class="label attribute-type"><foreignObject height="24" width="19.65625"><div style="display: table-cell; white-space: nowrap; line-height: 1.5; max-width: 117px; text-align: start;" xmlns="http://www.w3.org/1999/xhtml"><span class="nodeLabel"><p>int</p></span></div></foreignObject></g><g style="" transform="translate(-99.171875, -33.375)" class="label attribute-name"><foreignObject height="24" width="68.609375"><div style="display: table-cell; white-space: nowrap; line-height: 1.5; max-width: 162px; text-align: start;" xmlns="http://www.w3.org/1999/xhtml"><span class="nodeLabel"><p>matricula</p></span></div></foreignObject></g><g style="" transform="translate(-2.953125, -33.375)" class="label attribute-keys"><foreignObject height="24" width="18.140625"><div style="display: table-cell; white-space: nowrap; line-height: 1.5; max-width: 122px; text-align: start;" xmlns="http://www.w3.org/1999/xhtml"><span class="nodeLabel"><p>PK</p></span></div></foreignObject></g><g style="" transform="translate(40.1875, -33.375)" class="label attribute-comment"><foreignObject height="24" width="124.359375"><div style="display: table-cell; white-space: nowrap; line-height: 1.5; max-width: 213px; text-align: start;" xmlns="http://www.w3.org/1999/xhtml"><span class="nodeLabel"><p>FK p/ empregado</p></span></div></foreignObject></g><g style="" transform="translate(-164.546875, 9.375)" class="label attribute-type"><foreignObject height="24" width="19.65625"><div style="display: table-cell; white-space: nowrap; line-height: 1.5; max-width: 117px; text-align: start;" xmlns="http://www.w3.org/1999/xhtml"><span class="nodeLabel"><p>int</p></span></div></foreignObject></g><g style="" transform="translate(-99.171875, 9.375)" class="label attribute-name"><foreignObject height="24" width="71.21875"><div style="display: table-cell; white-space: nowrap; line-height: 1.5; max-width: 164px; text-align: start;" xmlns="http://www.w3.org/1999/xhtml"><span class="nodeLabel"><p>sequencia</p></span></div></foreignObject></g><g style="" transform="translate(-2.953125, 9.375)" class="label attribute-keys"><foreignObject height="24" width="18.140625"><div style="display: table-cell; white-space: nowrap; line-height: 1.5; max-width: 122px; text-align: start;" xmlns="http://www.w3.org/1999/xhtml"><span class="nodeLabel"><p>PK</p></span></div></foreignObject></g><g style="" transform="translate(40.1875, 9.375)" class="label attribute-comment"><foreignObject height="24" width="96.421875"><div style="display: table-cell; white-space: nowrap; line-height: 1.5; max-width: 186px; text-align: start;" xmlns="http://www.w3.org/1999/xhtml"><span class="nodeLabel"><p>diferenciador</p></span></div></foreignObject></g><g style="" transform="translate(-164.546875, 52.125)" class="label attribute-type"><foreignObject height="24" width="40.375"><div style="display: table-cell; white-space: nowrap; line-height: 1.5; max-width: 136px; text-align: start;" xmlns="http://www.w3.org/1999/xhtml"><span class="nodeLabel"><p>string</p></span></div></foreignObject></g><g style="" transform="translate(-99.171875, 52.125)" class="label attribute-name"><foreignObject height="24" width="39.34375"><div style="display: table-cell; white-space: nowrap; line-height: 1.5; max-width: 137px; text-align: start;" xmlns="http://www.w3.org/1999/xhtml"><span class="nodeLabel"><p>nome</p></span></div></foreignObject></g><g style="" transform="translate(-2.953125, 52.125)" class="label attribute-keys"><foreignObject height="0" width="0"><div style="display: table-cell; white-space: nowrap; line-height: 1.5; max-width: 100px; text-align: start;" xmlns="http://www.w3.org/1999/xhtml"><span class="nodeLabel"></span></div></foreignObject></g><g style="" transform="translate(40.1875, 52.125)" class="label attribute-comment"><foreignObject height="0" width="0"><div style="display: table-cell; white-space: nowrap; line-height: 1.5; max-width: 100px; text-align: start;" xmlns="http://www.w3.org/1999/xhtml"><span class="nodeLabel"></span></div></foreignObject></g><g class="divider"><path stroke-dasharray="0 0" fill="none" stroke-width="1.3" stroke="#999" d="M-177.046875 -42.75 C-101.77317532182988 -42.75, -26.499475643659764 -42.75, 177.046875 -42.75 M-177.046875 -42.75 C-39.27889821698395 -42.75, 98.4890785660321 -42.75, 177.046875 -42.75"/></g><g class="divider"><path stroke-dasharray="0 0" fill="none" stroke-width="1.3" stroke="#999" d="M-111.671875 -42.75 C-111.671875 -16.79419741339153, -111.671875 9.161605173216941, -111.671875 85.5 M-111.671875 -42.75 C-111.671875 0.8551483236072528, -111.671875 44.460296647214506, -111.671875 85.5"/></g><g class="divider"><path stroke-dasharray="0 0" fill="none" stroke-width="1.3" stroke="#999" d="M-15.453125 -42.75 C-15.453125 1.5111290441216028, -15.453125 45.772258088243206, -15.453125 85.5 M-15.453125 -42.75 C-15.453125 -16.47700175178178, -15.453125 9.795996496436437, -15.453125 85.5"/></g><g class="divider"><path stroke-dasharray="0 0" fill="none" stroke-width="1.3" stroke="#999" d="M27.6875 -42.75 C27.6875 -0.568832390484836, 27.6875 41.61233521903033, 27.6875 85.5 M27.6875 -42.75 C27.6875 -8.198513077682165, 27.6875 26.35297384463567, 27.6875 85.5"/></g><g class="divider"><path stroke-dasharray="0 0" fill="none" stroke-width="1.3" stroke="#999" d="M-177.046875 -42.75 C-85.77958151932721 -42.75, 5.487711961345582 -42.75, 177.046875 -42.75 M-177.046875 -42.75 C-47.511909649998216 -42.75, 82.02305570000357 -42.75, 177.046875 -42.75"/></g></g></g></g></g></svg>