<svg aria-roledescription="er" role="graphics-document document" viewBox="0 0 237.796875 373.5" style="max-width: 237.797px; background-color: transparent;" class="erDiagram" xmlns:xlink="http://www.w3.org/1999/xlink" xmlns="http://www.w3.org/2000/svg" width="100%" id="my-svg"><style>#my-svg{font-family:"trebuchet ms",verdana,arial,sans-serif;font-size:16px;fill:#000000;}@keyframes edge-animation-frame{from{stroke-dashoffset:0;}}@keyframes dash{to{stroke-dashoffset:0;}}#my-svg .edge-animation-slow{stroke-dasharray:9,5!important;stroke-dashoffset:900;animation:dash 50s linear infinite;stroke-linecap:round;}#my-svg .edge-animation-fast{stroke-dasharray:9,5!important;stroke-dashoffset:900;animation:dash 20s linear infinite;stroke-linecap:round;}#my-svg .error-icon{fill:#552222;}#my-svg .error-text{fill:#552222;stroke:#552222;}#my-svg .edge-thickness-normal{stroke-width:1px;}#my-svg .edge-thickness-thick{stroke-width:3.5px;}#my-svg .edge-pattern-solid{stroke-dasharray:0;}#my-svg .edge-thickness-invisible{stroke-width:0;fill:none;}#my-svg .edge-pattern-dashed{stroke-dasharray:3;}#my-svg .edge-pattern-dotted{stroke-dasharray:2;}#my-svg .marker{fill:#666;stroke:#666;}#my-svg .marker.cross{stroke:#666;}#my-svg svg{font-family:"trebuchet ms",verdana,arial,sans-serif;font-size:16px;}#my-svg p{margin:0;}#my-svg .entityBox{fill:#eee;stroke:#999;}#my-svg .relationshipLabelBox{fill:hsl(-160, 0%, 93.3333333333%);opacity:0.7;background-color:hsl(-160, 0%, 93.3333333333%);}#my-svg .relationshipLabelBox rect{opacity:0.5;}#my-svg .labelBkg{background-color:rgba(237.9999999999, 237.9999999999, 237.9999999999, 0.5);}#my-svg .edgeLabel .label{fill:#999;font-size:14px;}#my-svg .label{font-family:"trebuchet ms",verdana,arial,sans-serif;color:#000000;}#my-svg .edge-pattern-dashed{stroke-dasharray:8,8;}#my-svg .node rect,#my-svg .node circle,#my-svg .node ellipse,#my-svg .node polygon{fill:#eee;stroke:#999;stroke-width:1px;}#my-svg .relationshipLine{stroke:#666;stroke-width:1;fill:none;}#my-svg .marker{fill:none!important;stroke:#666!important;stroke-width:1;}#my-svg :root{--mermaid-font-family:"trebuchet ms",verdana,arial,sans-serif;}</style><g><defs><marker orient="auto" markerHeight="18" markerWidth="18" refY="9" refX="0" class="marker onlyOne er" id="my-svg_er-onlyOneStart"><path d="M9,0 L9,18 M15,0 L15,18"/></marker></defs><defs><marker orient="auto" markerHeight="18" markerWidth="18" refY="9" refX="18" class="marker onlyOne er" id="my-svg_er-onlyOneEnd"><path d="M3,0 L3,18 M9,0 L9,18"/></marker></defs><defs><marker orient="auto" markerHeight="18" markerWidth="30" refY="9" refX="0" class="marker zeroOrOne er" id="my-svg_er-zeroOrOneStart"><circle r="6" cy="9" cx="21" fill="white"/><path d="M9,0 L9,18"/></marker></defs><defs><marker orient="auto" markerHeight="18" markerWidth="30" refY="9" refX="30" class="marker zeroOrOne er" id="my-svg_er-zeroOrOneEnd"><circle r="6" cy="9" cx="9" fill="white"/><path d="M21,0 L21,18"/></marker></defs><defs><marker orient="auto" markerHeight="36" markerWidth="45" refY="18" refX="18" class="marker oneOrMore er" id="my-svg_er-oneOrMoreStart"><path d="M0,18 Q 18,0 36,18 Q 18,36 0,18 M42,9 L42,27"/></marker></defs><defs><marker orient="auto" markerHeight="36" markerWidth="45" refY="18" refX="27" class="marker oneOrMore er" id="my-svg_er-oneOrMoreEnd"><path d="M3,9 L3,27 M9,18 Q27,0 45,18 Q27,36 9,18"/></marker></defs><defs><marker orient="auto" markerHeight="36" markerWidth="57" refY="18" refX="18" class="marker zeroOrMore er" id="my-svg_er-zeroOrMoreStart"><circle r="6" cy="18" cx="48" fill="white"/><path d="M0,18 Q18,0 36,18 Q18,36 0,18"/></marker></defs><defs><marker orient="auto" markerHeight="36" markerWidth="57" refY="18" refX="39" class="marker zeroOrMore er" id="my-svg_er-zeroOrMoreEnd"><circle r="6" cy="18" cx="9" fill="white"/><path d="M21,18 Q39,0 57,18 Q39,36 21,18"/></marker></defs><g class="root"><g class="clusters"/><g class="edgePaths"><path marker-end="url(#my-svg_er-zeroOrMoreEnd)" marker-start="url(#my-svg_er-onlyOneStart)" style="" class="edge-thickness-normal edge-pattern-solid relationshipLine" id="id_entity-CLIENTES-0_entity-TELEFONES_CLIENTES-1_0" d="M118.898,136.25L118.898,144.667C118.898,153.083,118.898,169.917,118.898,186.75C118.898,203.583,118.898,220.417,118.898,228.833L118.898,237.25"/></g><g class="edgeLabels"><g transform="translate(118.8984375, 186.75)" class="edgeLabel"><g transform="translate(-12.40625, -10.5)" class="label"><foreignObject height="21" width="24.8125"><div style="display: table-cell; white-space: nowrap; line-height: 1.5; max-width: 200px; text-align: center;" class="labelBkg" xmlns="http://www.w3.org/1999/xhtml"><span class="edgeLabel"><p>tem</p></span></div></foreignObject></g></g></g><g class="nodes"><g transform="translate(118.8984375, 72.125)" id="entity-CLIENTES-0" class="node default"><g style=""><path fill="#eee" stroke-width="0" stroke="none" d="M-110.8984375 -64.125 L110.8984375 -64.125 L110.8984375 64.125 L-110.8984375 64.125"/><path stroke-dasharray="0 0" fill="none" stroke-width="1.3" stroke="#999" d="M-110.8984375 -64.125 C-57.13834738940295 -64.125, -3.378257278805904 -64.125, 110.8984375 -64.125 M-110.8984375 -64.125 C-28.987124817831287 -64.125, 52.924187864337426 -64.125, 110.8984375 -64.125 M110.8984375 -64.125 C110.8984375 -19.267517880939593, 110.8984375 25.589964238120814, 110.8984375 64.125 M110.8984375 -64.125 C110.8984375 -24.75443794824279, 110.8984375 14.616124103514423, 110.8984375 64.125 M110.8984375 64.125 C59.3414028715427 64.125, 7.784368243085396 64.125, -110.8984375 64.125 M110.8984375 64.125 C35.99704519680061 64.125, -38.904347106398774 64.125, -110.8984375 64.125 M-110.8984375 64.125 C-110.8984375 33.799906061675856, -110.8984375 3.474812123351704, -110.8984375 -64.125 M-110.8984375 64.125 C-110.8984375 31.971951547882583, -110.8984375 -0.1810969042348347, -110.8984375 -64.125"/></g><g class="row-rect-odd" style=""><path fill="hsl(0, 0%, 100%)" stroke-width="0" stroke="none" d="M-110.8984375 -21.375 L110.8984375 -21.375 L110.8984375 21.375 L-110.8984375 21.375"/><path stroke-dasharray="0 0" fill="none" stroke-width="1.3" stroke="#999" d="M-110.8984375 -21.375 C-43.83751620160169 -21.375, 23.223405096796625 -21.375, 110.8984375 -21.375 M-110.8984375 -21.375 C-61.059846295494204 -21.375, -11.221255090988407 -21.375, 110.8984375 -21.375 M110.8984375 -21.375 C110.8984375 -10.86927863522233, 110.8984375 -0.3635572704446588, 110.8984375 21.375 M110.8984375 -21.375 C110.8984375 -8.598679953059348, 110.8984375 4.177640093881305, 110.8984375 21.375 M110.8984375 21.375 C24.646156019815237 21.375, -61.606125460369526 21.375, -110.8984375 21.375 M110.8984375 21.375 C26.962487816833942 21.375, -56.973461866332116 21.375, -110.8984375 21.375 M-110.8984375 21.375 C-110.8984375 10.20904841981108, -110.8984375 -0.9569031603778413, -110.8984375 -21.375 M-110.8984375 21.375 C-110.8984375 12.085394884058346, -110.8984375 2.795789768116691, -110.8984375 -21.375"/></g><g class="row-rect-even" style=""><path fill="#f4f4f4" stroke-width="0" stroke="none" d="M-110.8984375 21.375 L110.8984375 21.375 L110.8984375 64.125 L-110.8984375 64.125"/><path stroke-dasharray="0 0" fill="none" stroke-width="1.3" stroke="#999" d="M-110.8984375 21.375 C-61.05073309411621 21.375, -11.203028688232422 21.375, 110.8984375 21.375 M-110.8984375 21.375 C-49.78871844594078 21.375, 11.321000608118439 21.375, 110.8984375 21.375 M110.8984375 21.375 C110.8984375 32.067463897721545, 110.8984375 42.75992779544309, 110.8984375 64.125 M110.8984375 21.375 C110.8984375 33.859151846122025, 110.8984375 46.34330369224405, 110.8984375 64.125 M110.8984375 64.125 C45.84291309558857 64.125, -19.212611308822858 64.125, -110.8984375 64.125 M110.8984375 64.125 C46.206380640692146 64.125, -18.48567621861571 64.125, -110.8984375 64.125 M-110.8984375 64.125 C-110.8984375 50.76473695401251, -110.8984375 37.404473908025025, -110.8984375 21.375 M-110.8984375 64.125 C-110.8984375 53.34369423663402, -110.8984375 42.562388473268044, -110.8984375 21.375"/></g><g style="" transform="translate(-33.234375, -54.75)" class="label name"><foreignObject height="24" width="66.46875"><div style="display: table-cell; white-space: nowrap; line-height: 1.5; max-width: 176px; text-align: start;" xmlns="http://www.w3.org/1999/xhtml"><span class="nodeLabel"><p>CLIENTES</p></span></div></foreignObject></g><g style="" transform="translate(-98.3984375, -12)" class="label attribute-type"><foreignObject height="24" width="19.65625"><div style="display: table-cell; white-space: nowrap; line-height: 1.5; max-width: 117px; text-align: start;" xmlns="http://www.w3.org/1999/xhtml"><span class="nodeLabel"><p>int</p></span></div></foreignObject></g><g style="" transform="translate(-33.0234375, -12)" class="label attribute-name"><foreignObject height="24" width="46.609375"><div style="display: table-cell; white-space: nowrap; line-height: 1.5; max-width: 144px; text-align: start;" xmlns="http://www.w3.org/1999/xhtml"><span class="nodeLabel"><p>codigo</p></span></div></foreignObject></g><g style="" transform="translate(80.2578125, -12)" class="label attribute-keys"><foreignObject height="24" width="18.140625"><div style="display: table-cell; white-space: nowrap; line-height: 1.5; max-width: 122px; text-align: start;" xmlns="http://www.w3.org/1999/xhtml"><span class="nodeLabel"><p>PK</p></span></div></foreignObject></g><g style="" transform="translate(123.3984375, -12)" class="label attribute-comment"><foreignObject height="0" width="0"><div style="display: table-cell; white-space: nowrap; line-height: 1.5; max-width: 100px; text-align: start;" xmlns="http://www.w3.org/1999/xhtml"><span class="nodeLabel"></span></div></foreignObject></g><g style="" transform="translate(-98.3984375, 30.75)" class="label attribute-type"><foreignObject height="24" width="40.375"><div style="display: table-cell; white-space: nowrap; line-height: 1.5; max-width: 136px; text-align: start;" xmlns="http://www.w3.org/1999/xhtml"><span class="nodeLabel"><p>string</p></span></div></foreignObject></g><g style="" transform="translate(-33.0234375, 30.75)" class="label attribute-name"><foreignObject height="24" width="88.28125"><div style="display: table-cell; white-space: nowrap; line-height: 1.5; max-width: 182px; text-align: start;" xmlns="http://www.w3.org/1999/xhtml"><span class="nodeLabel"><p>razao_social</p></span></div></foreignObject></g><g style="" transform="translate(80.2578125, 30.75)" class="label attribute-keys"><foreignObject height="0" width="0"><div style="display: table-cell; white-space: nowrap; line-height: 1.5; max-width: 100px; text-align: start;" xmlns="http://www.w3.org/1999/xhtml"><span class="nodeLabel"></span></div></foreignObject></g><g style="" transform="translate(123.3984375, 30.75)" class="label attribute-comment"><foreignObject height="0" width="0"><div style="display: table-cell; white-space: nowrap; line-height: 1.5; max-width: 100px; text-align: start;" xmlns="http://www.w3.org/1999/xhtml"><span class="nodeLabel"></span></div></foreignObject></g><g class="divider"><path stroke-dasharray="0 0" fill="none" stroke-width="1.3" stroke="#999" d="M-110.8984375 -21.375 C-34.750852515804084 -21.375, 41.39673246839183 -21.375, 110.8984375 -21.375 M-110.8984375 -21.375 C-59.70111349550644 -21.375, -8.503789491012881 -21.375, 110.8984375 -21.375"/></g><g class="divider"><path stroke-dasharray="0 0" fill="none" stroke-width="1.3" stroke="#999" d="M-45.5234375 -21.375 C-45.5234375 -0.9993429793345818, -45.5234375 19.376314041330836, -45.5234375 64.125 M-45.5234375 -21.375 C-45.5234375 10.323151852900455, -45.5234375 42.02130370580091, -45.5234375 64.125"/></g><g class="divider"><path stroke-dasharray="0 0" fill="none" stroke-width="1.3" stroke="#999" d="M67.7578125 -21.375 C67.7578125 8.179101728360042, 67.7578125 37.733203456720084, 67.7578125 64.125 M67.7578125 -21.375 C67.7578125 5.2689494007353055, 67.7578125 31.91289880147061, 67.7578125 64.125"/></g><g class="divider"><path stroke-dasharray="0 0" fill="none" stroke-width="1.3" stroke="#999" d="M-110.8984375 -21.375 C-61.07201578674639 -21.375, -11.245594073492782 -21.375, 110.8984375 -21.375 M-110.8984375 -21.375 C-35.117056841619885 -21.375, 40.66432381676023 -21.375, 110.8984375 -21.375"/></g></g><g transform="translate(118.8984375, 301.375)" id="entity-TELEFONES_CLIENTES-1" class="node default"><g style=""><path fill="#eee" stroke-width="0" stroke="none" d="M-102.5234375 -64.125 L102.5234375 -64.125 L102.5234375 64.125 L-102.5234375 64.125"/><path stroke-dasharray="0 0" fill="none" stroke-width="1.3" stroke="#999" d="M-102.5234375 -64.125 C-43.693221633564455 -64.125, 15.13699423287109 -64.125, 102.5234375 -64.125 M-102.5234375 -64.125 C-43.02885667116943 -64.125, 16.465724157661143 -64.125, 102.5234375 -64.125 M102.5234375 -64.125 C102.5234375 -34.325292290887596, 102.5234375 -4.525584581775192, 102.5234375 64.125 M102.5234375 -64.125 C102.5234375 -25.909885337686752, 102.5234375 12.305229324626495, 102.5234375 64.125 M102.5234375 64.125 C20.957194964193036 64.125, -60.60904757161393 64.125, -102.5234375 64.125 M102.5234375 64.125 C27.164832968789284 64.125, -48.19377156242143 64.125, -102.5234375 64.125 M-102.5234375 64.125 C-102.5234375 22.46370796813241, -102.5234375 -19.197584063735178, -102.5234375 -64.125 M-102.5234375 64.125 C-102.5234375 32.065337008934925, -102.5234375 0.005674017869850445, -102.5234375 -64.125"/></g><g class="row-rect-odd" style=""><path fill="hsl(0, 0%, 100%)" stroke-width="0" stroke="none" d="M-102.5234375 -21.375 L102.5234375 -21.375 L102.5234375 21.375 L-102.5234375 21.375"/><path stroke-dasharray="0 0" fill="none" stroke-width="1.3" stroke="#999" d="M-102.5234375 -21.375 C-21.49285953241308 -21.375, 59.53771843517384 -21.375, 102.5234375 -21.375 M-102.5234375 -21.375 C-60.54328284223171 -21.375, -18.563128184463423 -21.375, 102.5234375 -21.375 M102.5234375 -21.375 C102.5234375 -6.794496212437968, 102.5234375 7.786007575124064, 102.5234375 21.375 M102.5234375 -21.375 C102.5234375 -5.899422196030537, 102.5234375 9.576155607938926, 102.5234375 21.375 M102.5234375 21.375 C38.883007818349775 21.375, -24.75742186330045 21.375, -102.5234375 21.375 M102.5234375 21.375 C32.62432454770466 21.375, -37.27478840459068 21.375, -102.5234375 21.375 M-102.5234375 21.375 C-102.5234375 11.229807134853345, -102.5234375 1.084614269706691, -102.5234375 -21.375 M-102.5234375 21.375 C-102.5234375 11.718656097328578, -102.5234375 2.0623121946571565, -102.5234375 -21.375"/></g><g class="row-rect-even" style=""><path fill="#f4f4f4" stroke-width="0" stroke="none" d="M-102.5234375 21.375 L102.5234375 21.375 L102.5234375 64.125 L-102.5234375 64.125"/><path stroke-dasharray="0 0" fill="none" stroke-width="1.3" stroke="#999" d="M-102.5234375 21.375 C-36.650005200709 21.375, 29.223427098581993 21.375, 102.5234375 21.375 M-102.5234375 21.375 C-48.97605680323294 21.375, 4.571323893534114 21.375, 102.5234375 21.375 M102.5234375 21.375 C102.5234375 30.922089497778217, 102.5234375 40.46917899555643, 102.5234375 64.125 M102.5234375 21.375 C102.5234375 31.46456922549649, 102.5234375 41.55413845099298, 102.5234375 64.125 M102.5234375 64.125 C35.12947748536189 64.125, -32.26448252927622 64.125, -102.5234375 64.125 M102.5234375 64.125 C38.18191450339587 64.125, -26.159608493208253 64.125, -102.5234375 64.125 M-102.5234375 64.125 C-102.5234375 47.6328532067747, -102.5234375 31.140706413549395, -102.5234375 21.375 M-102.5234375 64.125 C-102.5234375 50.33696477129871, -102.5234375 36.54892954259742, -102.5234375 21.375"/></g><g style="" transform="translate(-77.5234375, -54.75)" class="label name"><foreignObject height="24" width="155.046875"><div style="display: table-cell; white-space: nowrap; line-height: 1.5; max-width: 273px; text-align: start;" xmlns="http://www.w3.org/1999/xhtml"><span class="nodeLabel"><p>TELEFONES_CLIENTES</p></span></div></foreignObject></g><g style="" transform="translate(-90.0234375, -12)" class="label attribute-type"><foreignObject height="24" width="19.65625"><div style="display: table-cell; white-space: nowrap; line-height: 1.5; max-width: 117px; text-align: start;" xmlns="http://www.w3.org/1999/xhtml"><span class="nodeLabel"><p>int</p></span></div></foreignObject></g><g style="" transform="translate(-20.7890625, -12)" class="label attribute-name"><foreignObject height="24" width="46.609375"><div style="display: table-cell; white-space: nowrap; line-height: 1.5; max-width: 144px; text-align: start;" xmlns="http://www.w3.org/1999/xhtml"><span class="nodeLabel"><p>codigo</p></span></div></foreignObject></g><g style="" transform="translate(68.5546875, -12)" class="label attribute-keys"><foreignObject height="24" width="17.609375"><div style="display: table-cell; white-space: nowrap; line-height: 1.5; max-width: 122px; text-align: start;" xmlns="http://www.w3.org/1999/xhtml"><span class="nodeLabel"><p>FK</p></span></div></foreignObject></g><g style="" transform="translate(115.0234375, -12)" class="label attribute-comment"><foreignObject height="0" width="0"><div style="display: table-cell; white-space: nowrap; line-height: 1.5; max-width: 100px; text-align: start;" xmlns="http://www.w3.org/1999/xhtml"><span class="nodeLabel"></span></div></foreignObject></g><g style="" transform="translate(-90.0234375, 30.75)" class="label attribute-type"><foreignObject height="24" width="40.375"><div style="display: table-cell; white-space: nowrap; line-height: 1.5; max-width: 136px; text-align: start;" xmlns="http://www.w3.org/1999/xhtml"><span class="nodeLabel"><p>string</p></span></div></foreignObject></g><g style="" transform="translate(-20.7890625, 30.75)" class="label attribute-name"><foreignObject height="24" width="60.484375"><div style="display: table-cell; white-space: nowrap; line-height: 1.5; max-width: 153px; text-align: start;" xmlns="http://www.w3.org/1999/xhtml"><span class="nodeLabel"><p>telefone</p></span></div></foreignObject></g><g style="" transform="translate(68.5546875, 30.75)" class="label attribute-keys"><foreignObject height="0" width="0"><div style="display: table-cell; white-space: nowrap; line-height: 1.5; max-width: 100px; text-align: start;" xmlns="http://www.w3.org/1999/xhtml"><span class="nodeLabel"></span></div></foreignObject></g><g style="" transform="translate(115.0234375, 30.75)" class="label attribute-comment"><foreignObject height="0" width="0"><div style="display: table-cell; white-space: nowrap; line-height: 1.5; max-width: 100px; text-align: start;" xmlns="http://www.w3.org/1999/xhtml"><span class="nodeLabel"></span></div></foreignObject></g><g class="divider"><path stroke-dasharray="0 0" fill="none" stroke-width="1.3" stroke="#999" d="M-102.5234375 -21.375 C-48.814488356932166 -21.375, 4.894460786135667 -21.375, 102.5234375 -21.375 M-102.5234375 -21.375 C-49.95598770911492 -21.375, 2.6114620817701564 -21.375, 102.5234375 -21.375"/></g><g class="divider"><path stroke-dasharray="0 0" fill="none" stroke-width="1.3" stroke="#999" d="M-33.2890625 -21.375 C-33.2890625 0.9509157115072675, -33.2890625 23.276831423014535, -33.2890625 64.125 M-33.2890625 -21.375 C-33.2890625 1.2378057681866856, -33.2890625 23.85061153637337, -33.2890625 64.125"/></g><g class="divider"><path stroke-dasharray="0 0" fill="none" stroke-width="1.3" stroke="#999" d="M56.0546875 -21.375 C56.0546875 8.005099151482007, 56.0546875 37.385198302964014, 56.0546875 64.125 M56.0546875 -21.375 C56.0546875 -2.540926430802653, 56.0546875 16.293147138394694, 56.0546875 64.125"/></g><g class="divider"><path stroke-dasharray="0 0" fill="none" stroke-width="1.3" stroke="#999" d="M-102.5234375 -21.375 C-25.172998084614065 -21.375, 52.17744133077187 -21.375, 102.5234375 -21.375 M-102.5234375 -21.375 C-30.0388326148543 -21.375, 42.4457722702914 -21.375, 102.5234375 -21.375"/></g></g></g></g></g></svg>