<svg aria-roledescription="er" role="graphics-document document" viewBox="0 0 1422.66015625 840" style="max-width: 1422.66px; background-color: transparent;" class="erDiagram" xmlns:xlink="http://www.w3.org/1999/xlink" xmlns="http://www.w3.org/2000/svg" width="100%" id="my-svg"><style>#my-svg{font-family:"trebuchet ms",verdana,arial,sans-serif;font-size:16px;fill:#000000;}@keyframes edge-animation-frame{from{stroke-dashoffset:0;}}@keyframes dash{to{stroke-dashoffset:0;}}#my-svg .edge-animation-slow{stroke-dasharray:9,5!important;stroke-dashoffset:900;animation:dash 50s linear infinite;stroke-linecap:round;}#my-svg .edge-animation-fast{stroke-dasharray:9,5!important;stroke-dashoffset:900;animation:dash 20s linear infinite;stroke-linecap:round;}#my-svg .error-icon{fill:#552222;}#my-svg .error-text{fill:#552222;stroke:#552222;}#my-svg .edge-thickness-normal{stroke-width:1px;}#my-svg .edge-thickness-thick{stroke-width:3.5px;}#my-svg .edge-pattern-solid{stroke-dasharray:0;}#my-svg .edge-thickness-invisible{stroke-width:0;fill:none;}#my-svg .edge-pattern-dashed{stroke-dasharray:3;}#my-svg .edge-pattern-dotted{stroke-dasharray:2;}#my-svg .marker{fill:#666;stroke:#666;}#my-svg .marker.cross{stroke:#666;}#my-svg svg{font-family:"trebuchet ms",verdana,arial,sans-serif;font-size:16px;}#my-svg p{margin:0;}#my-svg .entityBox{fill:#eee;stroke:#999;}#my-svg .relationshipLabelBox{fill:hsl(-160, 0%, 93.3333333333%);opacity:0.7;background-color:hsl(-160, 0%, 93.3333333333%);}#my-svg .relationshipLabelBox rect{opacity:0.5;}#my-svg .labelBkg{background-color:rgba(237.9999999999, 237.9999999999, 237.9999999999, 0.5);}#my-svg .edgeLabel .label{fill:#999;font-size:14px;}#my-svg .label{font-family:"trebuchet ms",verdana,arial,sans-serif;color:#000000;}#my-svg .edge-pattern-dashed{stroke-dasharray:8,8;}#my-svg .node rect,#my-svg .node circle,#my-svg .node ellipse,#my-svg .node polygon{fill:#eee;stroke:#999;stroke-width:1px;}#my-svg .relationshipLine{stroke:#666;stroke-width:1;fill:none;}#my-svg .marker{fill:none!important;stroke:#666!important;stroke-width:1;}#my-svg :root{--mermaid-font-family:"trebuchet ms",verdana,arial,sans-serif;}</style><g><defs><marker orient="auto" markerHeight="18" markerWidth="18" refY="9" refX="0" class="marker onlyOne er" id="my-svg_er-onlyOneStart"><path d="M9,0 L9,18 M15,0 L15,18"/></marker></defs><defs><marker orient="auto" markerHeight="18" markerWidth="18" refY="9" refX="18" class="marker onlyOne er" id="my-svg_er-onlyOneEnd"><path d="M3,0 L3,18 M9,0 L9,18"/></marker></defs><defs><marker orient="auto" markerHeight="18" markerWidth="30" refY="9" refX="0" class="marker zeroOrOne er" id="my-svg_er-zeroOrOneStart"><circle r="6" cy="9" cx="21" fill="white"/><path d="M9,0 L9,18"/></marker></defs><defs><marker orient="auto" markerHeight="18" markerWidth="30" refY="9" refX="30" class="marker zeroOrOne er" id="my-svg_er-zeroOrOneEnd"><circle r="6" cy="9" cx="9" fill="white"/><path d="M21,0 L21,18"/></marker></defs><defs><marker orient="auto" markerHeight="36" markerWidth="45" refY="18" refX="18" class="marker oneOrMore er" id="my-svg_er-oneOrMoreStart"><path d="M0,18 Q 18,0 36,18 Q 18,36 0,18 M42,9 L42,27"/></marker></defs><defs><marker orient="auto" markerHeight="36" markerWidth="45" refY="18" refX="27" class="marker oneOrMore er" id="my-svg_er-oneOrMoreEnd"><path d="M3,9 L3,27 M9,18 Q27,0 45,18 Q27,36 9,18"/></marker></defs><defs><marker orient="auto" markerHeight="36" markerWidth="57" refY="18" refX="18" class="marker zeroOrMore er" id="my-svg_er-zeroOrMoreStart"><circle r="6" cy="18" cx="48" fill="white"/><path d="M0,18 Q18,0 36,18 Q18,36 0,18"/></marker></defs><defs><marker orient="auto" markerHeight="36" markerWidth="57" refY="18" refX="39" class="marker zeroOrMore er" id="my-svg_er-zeroOrMoreEnd"><circle r="6" cy="18" cx="9" fill="white"/><path d="M21,18 Q39,0 57,18 Q39,36 21,18"/></marker></defs><g class="root"><g class="clusters"/><g class="edgePaths"><path marker-start="url(#my-svg_er-onlyOneStart)" style="" class="edge-thickness-normal edge-pattern-solid relationshipLine" id="entity-MATERIAIS-0-cyclic-special-1" d="M925.009,65.801L879.521,78.584C834.034,91.367,743.059,116.934,697.571,145.125C652.084,173.317,652.084,204.133,652.084,219.542L652.084,234.95"/><path style="" class="edge-thickness-normal edge-pattern-solid relationshipLine" id="entity-MATERIAIS-0-cyclic-special-mid" d="M652.084,235.05L652.084,250.458C652.084,265.867,652.084,296.683,703.698,327.506C755.313,358.328,858.542,389.157,910.157,404.571L961.771,419.985"/><path marker-end="url(#my-svg_er-zeroOrMoreEnd)" style="" class="edge-thickness-normal edge-pattern-solid relationshipLine" id="entity-MATERIAIS-0-cyclic-special-2" d="M961.871,419.987L1020.285,404.572C1078.698,389.158,1195.525,358.329,1253.939,327.498C1312.352,296.667,1312.352,265.833,1312.352,235C1312.352,204.167,1312.352,173.333,1266.537,145.118C1220.722,116.902,1129.092,91.305,1083.277,78.506L1037.462,65.707"/><path marker-end="url(#my-svg_er-zeroOrMoreEnd)" marker-start="url(#my-svg_er-zeroOrMoreStart)" style="" class="edge-thickness-normal edge-pattern-solid relationshipLine" id="id_entity-MATERIAIS-0_entity-PROJETOS-1_1" d="M925.009,74.308L898.72,85.673C872.43,97.039,819.852,119.769,793.563,146.551C767.274,173.333,767.274,204.167,767.274,235C767.274,265.833,767.274,296.667,747.275,322.592C727.276,348.517,687.278,369.534,667.279,380.042L647.28,390.55"/><path marker-end="url(#my-svg_er-onlyOneEnd)" marker-start="url(#my-svg_er-onlyOneStart)" style="" class="edge-thickness-normal edge-pattern-solid relationshipLine" id="id_entity-MATERIAIS-0_entity-FABRICACAO_INTERNA-2_2" d="M981.235,92L981.235,100.417C981.235,108.833,981.235,125.667,981.235,142.5C981.235,159.333,981.235,176.167,981.235,184.583L981.235,193"/><path marker-end="url(#my-svg_er-onlyOneEnd)" marker-start="url(#my-svg_er-onlyOneStart)" style="" class="edge-thickness-normal edge-pattern-solid relationshipLine" id="id_entity-MATERIAIS-0_entity-COMPRADOS-3_3" d="M1037.462,71.231L1068.919,83.109C1100.376,94.987,1163.29,118.744,1194.747,146.039C1226.204,173.333,1226.204,204.167,1226.204,235C1226.204,265.833,1226.204,296.667,1237.543,320.5C1248.883,344.333,1271.561,361.167,1282.901,369.583L1294.24,378"/><path marker-end="url(#my-svg_er-zeroOrMoreEnd)" marker-start="url(#my-svg_er-zeroOrMoreStart)" style="" class="edge-thickness-normal edge-pattern-solid relationshipLine" id="id_entity-FABRICACAO_INTERNA-2_entity-COMPRADOS-3_4" d="M981.235,277L981.235,285.417C981.235,293.833,981.235,310.667,1032.194,331.837C1083.153,353.008,1185.071,378.516,1236.029,391.269L1286.988,404.023"/><path marker-end="url(#my-svg_er-onlyOneEnd)" marker-start="url(#my-svg_er-zeroOrMoreStart)" style="" class="edge-thickness-normal edge-pattern-solid relationshipLine" id="id_entity-COMPRADOS-3_entity-EMPREGADOS-4_5" d="M1350.824,462L1350.824,470.417C1350.824,478.833,1350.824,495.667,1299.684,516.715C1248.544,537.764,1146.263,563.028,1095.123,575.66L1043.983,588.292"/><path marker-end="url(#my-svg_er-zeroOrMoreEnd)" marker-start="url(#my-svg_er-zeroOrMoreStart)" style="" class="edge-thickness-normal edge-pattern-solid relationshipLine" id="id_entity-PROJETOS-1_entity-EMPREGADOS-4_6" d="M591.234,462L591.234,470.417C591.234,478.833,591.234,495.667,644.145,516.792C697.056,537.918,802.879,563.336,855.79,576.044L908.702,588.753"/><path marker-end="url(#my-svg_er-onlyOneEnd)" marker-start="url(#my-svg_er-zeroOrMoreStart)" style="" class="edge-thickness-normal edge-pattern-solid relationshipLine" id="id_entity-EMPREGADOS-4_entity-CARGOS-5_7" d="M976.342,647L976.342,655.417C976.342,663.833,976.342,680.667,976.342,697.5C976.342,714.333,976.342,731.167,976.342,739.583L976.342,748"/><path marker-end="url(#my-svg_er-zeroOrMoreEnd)" marker-start="url(#my-svg_er-zeroOrMoreStart)" style="" class="edge-thickness-normal edge-pattern-solid relationshipLine" id="id_entity-REPRESENTANTES-6_entity-CLIENTES-7_8" d="M163.397,91.202L146.37,99.751C129.343,108.301,95.289,125.401,78.261,142.367C61.234,159.333,61.234,176.167,61.234,184.583L61.234,193"/><path marker-end="url(#my-svg_er-zeroOrMoreEnd)" marker-start="url(#my-svg_er-zeroOrMoreStart)" style="" class="edge-thickness-normal edge-pattern-solid relationshipLine" id="id_entity-REPRESENTANTES-6_entity-ARMAZENS-8_9" d="M245.452,92L245.452,100.417C245.452,108.833,245.452,125.667,251.496,142.5C257.541,159.333,269.63,176.167,275.675,184.583L281.719,193"/><path marker-end="url(#my-svg_er-zeroOrMoreEnd)" marker-start="url(#my-svg_er-zeroOrMoreStart)" style="" class="edge-thickness-normal edge-pattern-solid relationshipLine" id="id_entity-REPRESENTANTES-6_entity-ARMAZENS-8_10" d="M319.346,92L334.154,100.417C348.962,108.833,378.579,125.667,384.624,142.5C390.668,159.333,373.141,176.167,364.377,184.583L355.614,193"/><path marker-end="url(#my-svg_er-onlyOneEnd)" marker-start="url(#my-svg_er-zeroOrOneStart)" style="" class="edge-thickness-normal edge-pattern-solid relationshipLine" id="id_entity-ARMAZENS-8_entity-LOCAIS-9_11" d="M311.883,277L311.883,285.417C311.883,293.833,311.883,310.667,311.883,327.5C311.883,344.333,311.883,361.167,311.883,369.583L311.883,378"/></g><g class="edgeLabels"><g class="edgeLabel"><g transform="translate(0, 0)" class="label"><foreignObject height="0" width="0"><div style="display: table-cell; white-space: nowrap; line-height: 1.5; max-width: 200px; text-align: center;" class="labelBkg" xmlns="http://www.w3.org/1999/xhtml"><span class="edgeLabel"></span></div></foreignObject></g></g><g transform="translate(652.0835937503725, 327.5)" class="edgeLabel"><g transform="translate(-66.234375, -10.5)" class="label"><foreignObject height="21" width="132.46875"><div style="display: table-cell; white-space: nowrap; line-height: 1.5; max-width: 200px; text-align: center;" class="labelBkg" xmlns="http://www.w3.org/1999/xhtml"><span class="edgeLabel"><p>COMPOEM (auto-rel.)</p></span></div></foreignObject></g></g><g class="edgeLabel"><g transform="translate(0, 0)" class="label"><foreignObject height="0" width="0"><div style="display: table-cell; white-space: nowrap; line-height: 1.5; max-width: 200px; text-align: center;" class="labelBkg" xmlns="http://www.w3.org/1999/xhtml"><span class="edgeLabel"></span></div></foreignObject></g></g><g transform="translate(767.2742187511176, 235)" class="edgeLabel"><g transform="translate(-35.140625, -10.5)" class="label"><foreignObject height="21" width="70.28125"><div style="display: table-cell; white-space: nowrap; line-height: 1.5; max-width: 200px; text-align: center;" class="labelBkg" xmlns="http://www.w3.org/1999/xhtml"><span class="edgeLabel"><p>CONSOMEM</p></span></div></foreignObject></g></g><g transform="translate(981.2351562511176, 142.5)" class="edgeLabel"><g transform="translate(-66.1484375, -10.5)" class="label"><foreignObject height="21" width="132.296875"><div style="display: table-cell; white-space: nowrap; line-height: 1.5; max-width: 200px; text-align: center;" class="labelBkg" xmlns="http://www.w3.org/1999/xhtml"><span class="edgeLabel"><p>é um (generalização)</p></span></div></foreignObject></g></g><g transform="translate(1226.2039062511176, 235)" class="edgeLabel"><g transform="translate(-66.1484375, -10.5)" class="label"><foreignObject height="21" width="132.296875"><div style="display: table-cell; white-space: nowrap; line-height: 1.5; max-width: 200px; text-align: center;" class="labelBkg" xmlns="http://www.w3.org/1999/xhtml"><span class="edgeLabel"><p>é um (generalização)</p></span></div></foreignObject></g></g><g transform="translate(981.2351562511176, 327.5)" class="edgeLabel"><g transform="translate(-28.9921875, -10.5)" class="label"><foreignObject height="21" width="57.984375"><div style="display: table-cell; white-space: nowrap; line-height: 1.5; max-width: 200px; text-align: center;" class="labelBkg" xmlns="http://www.w3.org/1999/xhtml"><span class="edgeLabel"><p>UTILIZAM</p></span></div></foreignObject></g></g><g transform="translate(1350.8242187518626, 512.5)" class="edgeLabel"><g transform="translate(-30.9453125, -10.5)" class="label"><foreignObject height="21" width="61.890625"><div style="display: table-cell; white-space: nowrap; line-height: 1.5; max-width: 200px; text-align: center;" class="labelBkg" xmlns="http://www.w3.org/1999/xhtml"><span class="edgeLabel"><p>COMPRAM</p></span></div></foreignObject></g></g><g transform="translate(591.2335937507451, 512.5)" class="edgeLabel"><g transform="translate(-100, -10.5)" class="label"><foreignObject height="21" width="200"><div style="display: table; white-space: break-spaces; line-height: 1.5; max-width: 200px; text-align: center; width: 200px;" class="labelBkg" xmlns="http://www.w3.org/1999/xhtml"><span class="edgeLabel"><p>ATUAM · ALOCAÇÃO (início/fim)</p></span></div></foreignObject></g></g><g transform="translate(976.3421875014901, 697.5)" class="edgeLabel"><g transform="translate(-28.609375, -10.5)" class="label"><foreignObject height="21" width="57.21875"><div style="display: table-cell; white-space: nowrap; line-height: 1.5; max-width: 200px; text-align: center;" class="labelBkg" xmlns="http://www.w3.org/1999/xhtml"><span class="edgeLabel"><p>POSSUEM</p></span></div></foreignObject></g></g><g transform="translate(61.234375, 142.5)" class="edgeLabel"><g transform="translate(-30.9453125, -10.5)" class="label"><foreignObject height="21" width="61.890625"><div style="display: table-cell; white-space: nowrap; line-height: 1.5; max-width: 200px; text-align: center;" class="labelBkg" xmlns="http://www.w3.org/1999/xhtml"><span class="edgeLabel"><p>COMPRAM</p></span></div></foreignObject></g></g><g transform="translate(245.45156249962747, 142.5)" class="edgeLabel"><g transform="translate(-26.046875, -10.5)" class="label"><foreignObject height="21" width="52.09375"><div style="display: table-cell; white-space: nowrap; line-height: 1.5; max-width: 200px; text-align: center;" class="labelBkg" xmlns="http://www.w3.org/1999/xhtml"><span class="edgeLabel"><p>ALUGAM</p></span></div></foreignObject></g></g><g transform="translate(408.1953125, 142.5)" class="edgeLabel"><g transform="translate(-25.6328125, -10.5)" class="label"><foreignObject height="21" width="51.265625"><div style="display: table-cell; white-space: nowrap; line-height: 1.5; max-width: 200px; text-align: center;" class="labelBkg" xmlns="http://www.w3.org/1999/xhtml"><span class="edgeLabel"><p>AVALIAM</p></span></div></foreignObject></g></g><g transform="translate(311.8828125, 327.5)" class="edgeLabel"><g transform="translate(-32.703125, -10.5)" class="label"><foreignObject height="21" width="65.40625"><div style="display: table-cell; white-space: nowrap; line-height: 1.5; max-width: 200px; text-align: center;" class="labelBkg" xmlns="http://www.w3.org/1999/xhtml"><span class="edgeLabel"><p>SITUAM-SE</p></span></div></foreignObject></g></g></g><g class="nodes"><g transform="translate(981.2351562511176, 50)" id="entity-MATERIAIS-0" class="node default"><rect height="84" width="112.453125" y="-42" x="-56.2265625" style="" class="basic label-container"/><g transform="translate(-36.2265625, -12)" style="" class="label"><rect/><foreignObject height="24" width="72.453125"><div style="display: table-cell; white-space: nowrap; line-height: 1.5; max-width: 200px; text-align: center;" xmlns="http://www.w3.org/1999/xhtml"><span class="nodeLabel"><p>MATERIAIS</p></span></div></foreignObject></g></g><g transform="translate(591.2335937507451, 420)" id="entity-PROJETOS-1" class="node default"><rect height="84" width="112.09375" y="-42" x="-56.046875" style="" class="basic label-container"/><g transform="translate(-36.046875, -12)" style="" class="label"><rect/><foreignObject height="24" width="72.09375"><div style="display: table-cell; white-space: nowrap; line-height: 1.5; max-width: 200px; text-align: center;" xmlns="http://www.w3.org/1999/xhtml"><span class="nodeLabel"><p>PROJETOS</p></span></div></foreignObject></g></g><g transform="translate(981.2351562511176, 235)" id="entity-FABRICACAO_INTERNA-2" class="node default"><rect height="84" width="197.640625" y="-42" x="-98.8203125" style="" class="basic label-container"/><g transform="translate(-78.8203125, -12)" style="" class="label"><rect/><foreignObject height="24" width="157.640625"><div style="display: table-cell; white-space: nowrap; line-height: 1.5; max-width: 200px; text-align: center;" xmlns="http://www.w3.org/1999/xhtml"><span class="nodeLabel"><p>FABRICACAO_INTERNA</p></span></div></foreignObject></g></g><g transform="translate(1350.8242187518626, 420)" id="entity-COMPRADOS-3" class="node default"><rect height="84" width="127.671875" y="-42" x="-63.8359375" style="" class="basic label-container"/><g transform="translate(-43.8359375, -12)" style="" class="label"><rect/><foreignObject height="24" width="87.671875"><div style="display: table-cell; white-space: nowrap; line-height: 1.5; max-width: 200px; text-align: center;" xmlns="http://www.w3.org/1999/xhtml"><span class="nodeLabel"><p>COMPRADOS</p></span></div></foreignObject></g></g><g transform="translate(976.3421875014901, 605)" id="entity-EMPREGADOS-4" class="node default"><rect height="84" width="135.28125" y="-42" x="-67.640625" style="" class="basic label-container"/><g transform="translate(-47.640625, -12)" style="" class="label"><rect/><foreignObject height="24" width="95.28125"><div style="display: table-cell; white-space: nowrap; line-height: 1.5; max-width: 200px; text-align: center;" xmlns="http://www.w3.org/1999/xhtml"><span class="nodeLabel"><p>EMPREGADOS</p></span></div></foreignObject></g></g><g transform="translate(976.3421875014901, 790)" id="entity-CARGOS-5" class="node default"><rect height="84" width="97.625" y="-42" x="-48.8125" style="" class="basic label-container"/><g transform="translate(-28.8125, -12)" style="" class="label"><rect/><foreignObject height="24" width="57.625"><div style="display: table-cell; white-space: nowrap; line-height: 1.5; max-width: 200px; text-align: center;" xmlns="http://www.w3.org/1999/xhtml"><span class="nodeLabel"><p>CARGOS</p></span></div></foreignObject></g></g><g transform="translate(245.45156249962747, 50)" id="entity-REPRESENTANTES-6" class="node default"><rect height="84" width="164.109375" y="-42" x="-82.0546875" style="" class="basic label-container"/><g transform="translate(-62.0546875, -12)" style="" class="label"><rect/><foreignObject height="24" width="124.109375"><div style="display: table-cell; white-space: nowrap; line-height: 1.5; max-width: 200px; text-align: center;" xmlns="http://www.w3.org/1999/xhtml"><span class="nodeLabel"><p>REPRESENTANTES</p></span></div></foreignObject></g></g><g transform="translate(61.234375, 235)" id="entity-CLIENTES-7" class="node default"><rect height="84" width="106.46875" y="-42" x="-53.234375" style="" class="basic label-container"/><g transform="translate(-33.234375, -12)" style="" class="label"><rect/><foreignObject height="24" width="66.46875"><div style="display: table-cell; white-space: nowrap; line-height: 1.5; max-width: 200px; text-align: center;" xmlns="http://www.w3.org/1999/xhtml"><span class="nodeLabel"><p>CLIENTES</p></span></div></foreignObject></g></g><g transform="translate(311.8828125, 235)" id="entity-ARMAZENS-8" class="node default"><rect height="84" width="114.828125" y="-42" x="-57.4140625" style="" class="basic label-container"/><g transform="translate(-37.4140625, -12)" style="" class="label"><rect/><foreignObject height="24" width="74.828125"><div style="display: table-cell; white-space: nowrap; line-height: 1.5; max-width: 200px; text-align: center;" xmlns="http://www.w3.org/1999/xhtml"><span class="nodeLabel"><p>ARMAZENS</p></span></div></foreignObject></g></g><g transform="translate(311.8828125, 420)" id="entity-LOCAIS-9" class="node default"><rect height="84" width="100" y="-42" x="-50" style="" class="basic label-container"/><g transform="translate(-25.0234375, -12)" style="" class="label"><rect/><foreignObject height="24" width="50.046875"><div style="display: table-cell; white-space: nowrap; line-height: 1.5; max-width: 100px; text-align: center;" xmlns="http://www.w3.org/1999/xhtml"><span class="nodeLabel"><p>LOCAIS</p></span></div></foreignObject></g></g><g transform="translate(652.0835937503725, 235)" id="entity-MATERIAIS-0---entity-MATERIAIS-0---1" class="label edgeLabel"><rect height="0.1" width="0.1"/><g transform="translate(0, 0)" style="" class="label"><rect/><foreignObject height="0" width="0"><div style="display: table-cell; white-space: nowrap; line-height: 1.5; max-width: 10px; text-align: center;" xmlns="http://www.w3.org/1999/xhtml"><span class="nodeLabel"></span></div></foreignObject></g></g><g transform="translate(961.8210937511176, 420)" id="entity-MATERIAIS-0---entity-MATERIAIS-0---2" class="label edgeLabel"><rect height="0.1" width="0.1"/><g transform="translate(0, 0)" style="" class="label"><rect/><foreignObject height="0" width="0"><div style="display: table-cell; white-space: nowrap; line-height: 1.5; max-width: 10px; text-align: center;" xmlns="http://www.w3.org/1999/xhtml"><span class="nodeLabel"></span></div></foreignObject></g></g></g></g></g></svg>