<svg aria-roledescription="flowchart-v2" role="graphics-document document" viewBox="0 0 385.864990234375 618.9927978515625" style="max-width: 385.865px; background-color: transparent;" class="flowchart" xmlns:xlink="http://www.w3.org/1999/xlink" xmlns="http://www.w3.org/2000/svg" width="100%" id="my-svg"><style>#my-svg{font-family:"trebuchet ms",verdana,arial,sans-serif;font-size:16px;fill:#000000;}@keyframes edge-animation-frame{from{stroke-dashoffset:0;}}@keyframes dash{to{stroke-dashoffset:0;}}#my-svg .edge-animation-slow{stroke-dasharray:9,5!important;stroke-dashoffset:900;animation:dash 50s linear infinite;stroke-linecap:round;}#my-svg .edge-animation-fast{stroke-dasharray:9,5!important;stroke-dashoffset:900;animation:dash 20s linear infinite;stroke-linecap:round;}#my-svg .error-icon{fill:#552222;}#my-svg .error-text{fill:#552222;stroke:#552222;}#my-svg .edge-thickness-normal{stroke-width:1px;}#my-svg .edge-thickness-thick{stroke-width:3.5px;}#my-svg .edge-pattern-solid{stroke-dasharray:0;}#my-svg .edge-thickness-invisible{stroke-width:0;fill:none;}#my-svg .edge-pattern-dashed{stroke-dasharray:3;}#my-svg .edge-pattern-dotted{stroke-dasharray:2;}#my-svg .marker{fill:#666;stroke:#666;}#my-svg .marker.cross{stroke:#666;}#my-svg svg{font-family:"trebuchet ms",verdana,arial,sans-serif;font-size:16px;}#my-svg p{margin:0;}#my-svg .label{font-family:"trebuchet ms",verdana,arial,sans-serif;color:#000000;}#my-svg .cluster-label text{fill:#333;}#my-svg .cluster-label span{color:#333;}#my-svg .cluster-label span p{background-color:transparent;}#my-svg .label text,#my-svg span{fill:#000000;color:#000000;}#my-svg .node rect,#my-svg .node circle,#my-svg .node ellipse,#my-svg .node polygon,#my-svg .node path{fill:#eee;stroke:#999;stroke-width:1px;}#my-svg .rough-node .label text,#my-svg .node .label text,#my-svg .image-shape .label,#my-svg .icon-shape .label{text-anchor:middle;}#my-svg .node .katex path{fill:#000;stroke:#000;stroke-width:1px;}#my-svg .rough-node .label,#my-svg .node .label,#my-svg .image-shape .label,#my-svg .icon-shape .label{text-align:center;}#my-svg .node.clickable{cursor:pointer;}#my-svg .root .anchor path{fill:#666!important;stroke-width:0;stroke:#666;}#my-svg .arrowheadPath{fill:#333333;}#my-svg .edgePath .path{stroke:#666;stroke-width:2.0px;}#my-svg .flowchart-link{stroke:#666;fill:none;}#my-svg .edgeLabel{background-color:white;text-align:center;}#my-svg .edgeLabel p{background-color:white;}#my-svg .edgeLabel rect{opacity:0.5;background-color:white;fill:white;}#my-svg .labelBkg{background-color:rgba(255, 255, 255, 0.5);}#my-svg .cluster rect{fill:hsl(0, 0%, 98.9215686275%);stroke:#707070;stroke-width:1px;}#my-svg .cluster text{fill:#333;}#my-svg .cluster span{color:#333;}#my-svg div.mermaidTooltip{position:absolute;text-align:center;max-width:200px;padding:2px;font-family:"trebuchet ms",verdana,arial,sans-serif;font-size:12px;background:hsl(-160, 0%, 93.3333333333%);border:1px solid #707070;border-radius:2px;pointer-events:none;z-index:100;}#my-svg .flowchartTitleText{text-anchor:middle;font-size:18px;fill:#000000;}#my-svg rect.text{fill:none;stroke-width:0;}#my-svg .icon-shape,#my-svg .image-shape{background-color:white;text-align:center;}#my-svg .icon-shape p,#my-svg .image-shape p{background-color:white;padding:2px;}#my-svg .icon-shape rect,#my-svg .image-shape rect{opacity:0.5;background-color:white;fill:white;}#my-svg .label-icon{display:inline-block;height:1em;overflow:visible;vertical-align:-0.125em;}#my-svg .node .label-icon path{fill:currentColor;stroke:revert;stroke-width:revert;}#my-svg :root{--mermaid-font-family:"trebuchet ms",verdana,arial,sans-serif;}#my-svg .view&gt;*{fill:#dfe8f3!important;stroke:#12437f!important;color:#0d2b57!important;}#my-svg .view span{fill:#dfe8f3!important;stroke:#12437f!important;color:#0d2b57!important;}#my-svg .view tspan{fill:#0d2b57!important;}#my-svg .base&gt;*{fill:#d6e0ee!important;stroke:#334155!important;color:#0d2b57!important;}#my-svg .base span{fill:#d6e0ee!important;stroke:#334155!important;color:#0d2b57!important;}#my-svg .base tspan{fill:#0d2b57!important;}</style><g><marker orient="auto" markerHeight="8" markerWidth="8" markerUnits="userSpaceOnUse" refY="5" refX="5" viewBox="0 0 10 10" class="marker flowchart-v2" id="my-svg_flowchart-v2-pointEnd"><path style="stroke-width: 1; stroke-dasharray: 1, 0;" class="arrowMarkerPath" d="M 0 0 L 10 5 L 0 10 z"/></marker><marker orient="auto" markerHeight="8" markerWidth="8" markerUnits="userSpaceOnUse" refY="5" refX="4.5" viewBox="0 0 10 10" class="marker flowchart-v2" id="my-svg_flowchart-v2-pointStart"><path style="stroke-width: 1; stroke-dasharray: 1, 0;" class="arrowMarkerPath" d="M 0 5 L 10 10 L 10 0 z"/></marker><marker orient="auto" markerHeight="11" markerWidth="11" markerUnits="userSpaceOnUse" refY="5" refX="11" viewBox="0 0 10 10" class="marker flowchart-v2" id="my-svg_flowchart-v2-circleEnd"><circle style="stroke-width: 1; stroke-dasharray: 1, 0;" class="arrowMarkerPath" r="5" cy="5" cx="5"/></marker><marker orient="auto" markerHeight="11" markerWidth="11" markerUnits="userSpaceOnUse" refY="5" refX="-1" viewBox="0 0 10 10" class="marker flowchart-v2" id="my-svg_flowchart-v2-circleStart"><circle style="stroke-width: 1; stroke-dasharray: 1, 0;" class="arrowMarkerPath" r="5" cy="5" cx="5"/></marker><marker orient="auto" markerHeight="11" markerWidth="11" markerUnits="userSpaceOnUse" refY="5.2" refX="12" viewBox="0 0 11 11" class="marker cross flowchart-v2" id="my-svg_flowchart-v2-crossEnd"><path style="stroke-width: 2; stroke-dasharray: 1, 0;" class="arrowMarkerPath" d="M 1,1 l 9,9 M 10,1 l -9,9"/></marker><marker orient="auto" markerHeight="11" markerWidth="11" markerUnits="userSpaceOnUse" refY="5.2" refX="-1" viewBox="0 0 11 11" class="marker cross flowchart-v2" id="my-svg_flowchart-v2-crossStart"><path style="stroke-width: 2; stroke-dasharray: 1, 0;" class="arrowMarkerPath" d="M 1,1 l 9,9 M 10,1 l -9,9"/></marker><g class="root"><g class="clusters"/><g class="edgePaths"><path marker-end="url(#my-svg_flowchart-v2-pointEnd)" style="" class="edge-thickness-normal edge-pattern-solid edge-thickness-normal edge-pattern-solid flowchart-link" id="L_U_V_0" d="M91.031,80.237L90.948,93.777C90.865,107.317,90.698,134.396,97.793,155.615C104.888,176.834,119.245,192.193,126.423,199.873L133.602,207.553"/><path marker-end="url(#my-svg_flowchart-v2-pointEnd)" style="" class="edge-thickness-normal edge-pattern-solid edge-thickness-normal edge-pattern-solid flowchart-link" id="L_V_B_0" d="M195.222,336.475L195.222,342.641C195.222,348.808,195.222,361.141,195.222,372.808C195.222,384.475,195.222,395.475,195.222,400.975L195.222,406.475"/><path marker-end="url(#my-svg_flowchart-v2-pointEnd)" style="" class="edge-thickness-normal edge-pattern-solid edge-thickness-normal edge-pattern-solid flowchart-link" id="L_B_D_0" d="M195.222,489.336L195.222,493.502C195.222,497.669,195.222,506.002,195.222,513.669C195.222,521.336,195.222,528.336,195.222,531.836L195.222,535.336"/><path marker-end="url(#my-svg_flowchart-v2-pointEnd)" style="" class="edge-thickness-normal edge-pattern-dotted edge-thickness-normal edge-pattern-solid flowchart-link" id="L_Cat_V_0" d="M299.912,112.475L299.912,120.641C299.912,128.808,299.912,145.141,292.733,160.988C285.555,176.834,271.198,192.193,264.02,199.873L256.841,207.553"/></g><g class="edgeLabels"><g transform="translate(90.53125, 161.4748306274414)" class="edgeLabel"><g transform="translate(-82.53125, -12)" class="label"><foreignObject height="24" width="165.0625"><div style="display: table-cell; white-space: nowrap; line-height: 1.5; max-width: 200px; text-align: center;" class="labelBkg" xmlns="http://www.w3.org/1999/xhtml"><span class="edgeLabel"><p>SELECT * FROM v_empr</p></span></div></foreignObject></g></g><g transform="translate(195.22155380249023, 373.4748306274414)" class="edgeLabel"><g transform="translate(-92.296875, -12)" class="label"><foreignObject height="24" width="184.59375"><div style="display: table-cell; white-space: nowrap; line-height: 1.5; max-width: 200px; text-align: center;" class="labelBkg" xmlns="http://www.w3.org/1999/xhtml"><span class="edgeLabel"><p>executada em tempo real</p></span></div></foreignObject></g></g><g class="edgeLabel"><g transform="translate(0, 0)" class="label"><foreignObject height="0" width="0"><div style="display: table-cell; white-space: nowrap; line-height: 1.5; max-width: 200px; text-align: center;" class="labelBkg" xmlns="http://www.w3.org/1999/xhtml"><span class="edgeLabel"></span></div></foreignObject></g></g><g transform="translate(299.91185760498047, 161.4748306274414)" class="edgeLabel"><g transform="translate(-77.953125, -24)" class="label"><foreignObject height="48" width="155.90625"><div style="display: table-cell; white-space: nowrap; line-height: 1.5; max-width: 200px; text-align: center;" class="labelBkg" xmlns="http://www.w3.org/1999/xhtml"><span class="edgeLabel"><p>guarda só a definição<br />da view, não os dados</p></span></div></foreignObject></g></g></g><g class="nodes"><g transform="translate(90.53125, 60.2374153137207)" id="flowchart-U-0" class="node default"><g class="basic label-container outer-path"><path style="" fill="#eee" stroke-width="0" stroke="none" d="M-62.5703125 -19.5 C-34.04024016440974 -19.5, -5.510167828819483 -19.5, 62.5703125 -19.5 C62.5703125 -19.5, 62.5703125 -19.5, 62.5703125 -19.5 C62.859978157125376 -19.490710986175987, 63.149643814250744 -19.481421972351974, 63.8196817896239 -19.45993515863156 C64.26127887520984 -19.41733481888328, 64.70287596079577 -19.374734479135004, 65.06391715284786 -19.3399052695533 C65.34907256604535 -19.29380355376079, 65.63422797924282 -19.247701837968275, 66.29790575967675 -19.140403561325776 C66.72619941561094 -19.042648329236098, 67.15449307154512 -18.94489309714642, 67.51657688623538 -18.862249829261074 C67.89674746010259 -18.749417198493354, 68.27691803396979 -18.636584567725635, 68.7149227514606 -18.50658706670804 C69.16469297700033 -18.341067466079032, 69.61446320254005 -18.175547865450024, 69.8880190951478 -18.074876768247425 C70.2142582465521 -17.93046037346132, 70.54049739795643 -17.78604397867521, 71.03104541279238 -17.568892924097174 C71.37025199698026 -17.39192906639855, 71.70945858116812 -17.214965208699923, 72.13930476407678 -16.990714730406097 C72.41841057515785 -16.821519147520945, 72.69751638623893 -16.65232356463579, 73.2082430736057 -16.342718045390892 C73.42483422240142 -16.191633436070717, 73.64142537119713 -16.040548826750538, 74.23346784457871 -15.627565626425154 C74.51870131246211 -15.400099526169495, 74.80393478034551 -15.172633425913837, 75.21076620850187 -14.848196188198123 C75.45613248651385 -14.625361026543604, 75.70149876452584 -14.402525864889085, 76.13612223676799 -14.007812326905688 C76.39498331168389 -13.740517014165524, 76.65384438659977 -13.473221701425361, 77.00573344296865 -13.10986736009568 C77.29128619023588 -12.774440854743974, 77.57683893750311 -12.439014349392265, 77.81602640812658 -12.158051136245305 C78.00076513986444 -11.91051806576126, 78.1855038716023 -11.662984995277213, 78.56367146464063 -11.156274872382312 C78.73667399207899 -10.890496532553694, 78.90967651951735 -10.624718192725075, 79.24559637860425 -10.108655082055241 C79.46646265954057 -9.716484635116677, 79.68732894047687 -9.32431418817811, 79.8589989742735 -9.019496659696287 C79.97673845997583 -8.77500809841399, 80.09447794567815 -8.53051953713169, 80.40135864880834 -7.893275190886684 C80.50942037317171 -7.626360642477854, 80.61748209753507 -7.359446094069023, 80.87044672997033 -6.734618561215508 C80.96693002499143 -6.444026249137379, 81.06341332001253 -6.153433937059251, 81.26433563421489 -5.548287939305138 C81.37947152328859 -5.109224894057132, 81.49460741236229 -4.670161848809126, 81.58140678754556 -4.339158212148133 C81.63847362270884 -4.046132074664524, 81.69554045787214 -3.7531059371809157, 81.82035727658177 -3.1121979531509023 C81.8668223089992 -2.7518243372798024, 81.91328734141663 -2.391450721408703, 81.98020520250937 -1.872449005199798 C81.99708409357392 -1.6095466524738313, 82.01396298463847 -1.3466442997478645, 82.06029371591342 -0.6250057626472757 C82.06029371591342 -0.36383805980595507, 82.06029371591342 -0.10267035696463445, 82.06029371591342 0.625005762647271 C82.03753176441816 0.979541530302417, 82.0147698129229 1.3340772979575628, 81.98020520250937 1.8724490051997846 C81.93298877558601 2.2386502884792097, 81.88577234866266 2.6048515717586347, 81.82035727658177 3.1121979531508885 C81.74216942998156 3.5136760204357933, 81.66398158338133 3.9151540877206976, 81.58140678754556 4.339158212148129 C81.45512990637351 4.82070668880364, 81.32885302520147 5.302255165459153, 81.26433563421489 5.548287939305125 C81.14807725096205 5.898439666404823, 81.0318188677092 6.248591393504519, 80.87044672997033 6.734618561215495 C80.72812623599557 7.086152932912679, 80.58580574202084 7.437687304609863, 80.40135864880834 7.893275190886679 C80.26074927813592 8.18525355764653, 80.1201399074635 8.47723192440638, 79.8589989742735 9.019496659696284 C79.6328707608253 9.421010200638152, 79.40674254737709 9.82252374158002, 79.24559637860425 10.108655082055236 C79.05526273999025 10.401058662704608, 78.86492910137628 10.69346224335398, 78.56367146464065 11.156274872382301 C78.38691623307902 11.393110779942024, 78.21016100151739 11.629946687501748, 77.81602640812659 12.158051136245302 C77.58314161217686 12.431610869088136, 77.35025681622714 12.705170601930968, 77.00573344296866 13.10986736009567 C76.7157933347959 13.409254326309622, 76.42585322662316 13.708641292523572, 76.13612223676799 14.007812326905684 C75.83666097417384 14.27977512228287, 75.53719971157969 14.551737917660056, 75.2107662085019 14.848196188198111 C74.8901099839639 15.103910994246661, 74.5694537594259 15.359625800295213, 74.23346784457871 15.627565626425152 C73.99294361377706 15.795344917706249, 73.7524193829754 15.963124208987345, 73.2082430736057 16.34271804539089 C72.97425403803979 16.48456357382315, 72.74026500247388 16.626409102255412, 72.13930476407678 16.990714730406093 C71.73190648049217 17.20325415400113, 71.32450819690757 17.415793577596162, 71.03104541279238 17.56889292409717 C70.75632078051973 17.690505369387605, 70.48159614824708 17.81211781467804, 69.8880190951478 18.07487676824742 C69.53354957103615 18.205324829800873, 69.1790800469245 18.33577289135432, 68.71492275146062 18.506587066708033 C68.46657984673396 18.580293937252396, 68.21823694200731 18.654000807796763, 67.51657688623541 18.86224982926107 C67.05182752628876 18.96832583789589, 66.58707816634212 19.074401846530712, 66.29790575967677 19.140403561325773 C66.03469684536155 19.18295713737664, 65.77148793104634 19.22551071342751, 65.06391715284788 19.3399052695533 C64.69645037142142 19.375354348014046, 64.32898358999495 19.410803426474793, 63.8196817896239 19.45993515863156 C63.48847185325166 19.470556416629986, 63.15726191687941 19.48117767462841, 62.57031250000001 19.5 C62.57031250000001 19.5, 62.5703125 19.5, 62.5703125 19.5 C18.343038312734897 19.5, -25.884235874530205 19.5, -62.57031249999999 19.5 C-62.87094369560308 19.490359342700135, -63.17157489120616 19.480718685400266, -63.81968178962389 19.45993515863156 C-64.171768445645 19.425969782371357, -64.52385510166611 19.39200440611116, -65.06391715284786 19.3399052695533 C-65.49168106855127 19.27074771702108, -65.91944498425468 19.201590164488866, -66.29790575967675 19.140403561325773 C-66.67909820707563 19.05339887272017, -67.0602906544745 18.96639418411457, -67.51657688623538 18.862249829261074 C-67.95361149244724 18.732540252178858, -68.3906460986591 18.60283067509664, -68.71492275146059 18.506587066708043 C-68.97101524308341 18.412342662497803, -69.22710773470624 18.31809825828756, -69.8880190951478 18.074876768247425 C-70.23479928613465 17.921367464566423, -70.58157947712148 17.76785816088542, -71.03104541279238 17.568892924097174 C-71.44815040818663 17.35128951516849, -71.8652554035809 17.133686106239807, -72.13930476407678 16.990714730406097 C-72.39257910572692 16.837178336092542, -72.64585344737705 16.683641941778987, -73.20824307360569 16.3427180453909 C-73.57529646833544 16.08667748671279, -73.94234986306519 15.830636928034686, -74.23346784457871 15.627565626425156 C-74.44164074660709 15.461553276771097, -74.64981364863547 15.295540927117038, -75.21076620850187 14.848196188198125 C-75.5169443291295 14.570133320073252, -75.82312244975715 14.292070451948378, -76.13612223676797 14.007812326905697 C-76.36324053818588 13.77329403393239, -76.59035883960377 13.53877574095908, -77.00573344296865 13.109867360095677 C-77.16831331213726 12.918891794713593, -77.33089318130588 12.72791622933151, -77.81602640812658 12.158051136245307 C-78.11092548678317 11.76291323670421, -78.40582456543979 11.367775337163112, -78.56367146464063 11.156274872382316 C-78.77862937962608 10.826041790682334, -78.99358729461153 10.49580870898235, -79.24559637860425 10.108655082055249 C-79.4418451244261 9.760195561508164, -79.63809387024794 9.411736040961081, -79.8589989742735 9.019496659696289 C-79.9719347080937 8.784983191981054, -80.08487044191389 8.550469724265817, -80.40135864880834 7.893275190886686 C-80.50660858695932 7.633305808784669, -80.61185852511028 7.37333642668265, -80.87044672997033 6.73461856121551 C-80.96467679338582 6.450812623729757, -81.05890685680133 6.167006686244004, -81.26433563421489 5.5482879393051325 C-81.37603176193042 5.122342194917827, -81.48772788964595 4.696396450530522, -81.58140678754556 4.339158212148136 C-81.66144219375528 3.9281933167502947, -81.74147759996501 3.517228421352453, -81.82035727658177 3.112197953150904 C-81.87561300034025 2.683645471156955, -81.93086872409874 2.2550929891630065, -81.98020520250937 1.872449005199809 C-82.01207422211075 1.3760633006984853, -82.04394324171216 0.8796775961971613, -82.06029371591342 0.6250057626472781 C-82.06029371591342 0.20686099508517786, -82.06029371591342 -0.21128377247692243, -82.06029371591342 -0.6250057626472687 C-82.04216422017 -0.907387292716582, -82.02403472442658 -1.1897688227858954, -81.98020520250937 -1.8724490051997822 C-81.94336013318315 -2.158212087012032, -81.90651506385693 -2.4439751688242817, -81.82035727658177 -3.112197953150895 C-81.73898740409992 -3.53001505081661, -81.65761753161806 -3.9478321484823247, -81.58140678754556 -4.339158212148126 C-81.4845220982342 -4.708621522582311, -81.38763740892284 -5.078084833016496, -81.26433563421489 -5.548287939305123 C-81.14884485353411 -5.896127769758584, -81.03335407285336 -6.243967600212046, -80.87044672997033 -6.734618561215485 C-80.75705910023797 -7.014688198855091, -80.64367147050561 -7.294757836494697, -80.40135864880834 -7.893275190886676 C-80.21423936955813 -8.281832377960939, -80.02712009030792 -8.670389565035201, -79.8589989742735 -9.019496659696282 C-79.72213525097989 -9.262512059358903, -79.58527152768626 -9.505527459021526, -79.24559637860425 -10.108655082055243 C-79.04800420130333 -10.412209727318283, -78.85041202400242 -10.71576437258132, -78.56367146464063 -11.156274872382308 C-78.28714976534067 -11.52678875779922, -78.0106280660407 -11.897302643216134, -77.81602640812659 -12.158051136245302 C-77.56379808416487 -12.454332877768941, -77.31156976020317 -12.75061461929258, -77.00573344296866 -13.10986736009567 C-76.7978878812366 -13.324484967021997, -76.59004231950453 -13.539102573948322, -76.13612223676799 -14.007812326905677 C-75.91333460040421 -14.210142163613419, -75.69054696404044 -14.412472000321161, -75.2107662085019 -14.848196188198107 C-74.9840639546201 -15.0289852028685, -74.7573617007383 -15.209774217538891, -74.23346784457871 -15.627565626425149 C-73.85672911514091 -15.890362255324217, -73.4799903857031 -16.153158884223284, -73.20824307360571 -16.342718045390885 C-72.94808211199557 -16.50042914919446, -72.68792115038545 -16.658140252998034, -72.13930476407678 -16.99071473040609 C-71.73033786061195 -17.204072501987888, -71.32137095714714 -17.41743027356969, -71.0310454127924 -17.56889292409717 C-70.58690902714403 -17.76549892718592, -70.14277264149568 -17.96210493027467, -69.88801909514781 -18.07487676824742 C-69.49910027109527 -18.21800249062495, -69.11018144704275 -18.361128213002484, -68.71492275146062 -18.506587066708033 C-68.31312690176847 -18.62583796582721, -67.91133105207632 -18.745088864946386, -67.51657688623541 -18.862249829261067 C-67.08771061227428 -18.960135757678714, -66.65884433831316 -19.05802168609636, -66.29790575967677 -19.140403561325773 C-65.97730961934859 -19.19223505903383, -65.65671347902041 -19.244066556741892, -65.06391715284788 -19.3399052695533 C-64.74644416806433 -19.370531506578242, -64.42897118328077 -19.401157743603186, -63.8196817896239 -19.45993515863156 C-63.41763265259776 -19.472828091914817, -63.01558351557162 -19.48572102519807, -62.57031250000001 -19.5 C-62.57031250000001 -19.5, -62.5703125 -19.5, -62.5703125 -19.5"/><path style="" stroke-dasharray="0 0" fill="none" stroke-width="1.3" stroke="#999" d="M-62.5703125 -19.5 C-29.49319455392496 -19.5, 3.5839233921500835 -19.5, 62.5703125 -19.5 M-62.5703125 -19.5 C-18.28561522560713 -19.5, 25.999082048785738 -19.5, 62.5703125 -19.5 M62.5703125 -19.5 C62.5703125 -19.5, 62.5703125 -19.5, 62.5703125 -19.5 M62.5703125 -19.5 C62.5703125 -19.5, 62.5703125 -19.5, 62.5703125 -19.5 M62.5703125 -19.5 C62.929611959700324 -19.48847796566138, 63.28891141940065 -19.476955931322767, 63.8196817896239 -19.45993515863156 M62.5703125 -19.5 C62.8537194137104 -19.490911691895402, 63.1371263274208 -19.4818233837908, 63.8196817896239 -19.45993515863156 M63.8196817896239 -19.45993515863156 C64.14122783047179 -19.428915998786657, 64.46277387131967 -19.39789683894175, 65.06391715284786 -19.3399052695533 M63.8196817896239 -19.45993515863156 C64.10148491853587 -19.43274994970327, 64.38328804744786 -19.405564740774977, 65.06391715284786 -19.3399052695533 M65.06391715284786 -19.3399052695533 C65.35961973464062 -19.292098369336816, 65.65532231643338 -19.244291469120334, 66.29790575967675 -19.140403561325776 M65.06391715284786 -19.3399052695533 C65.50939553885215 -19.267883778840606, 65.95487392485644 -19.195862288127913, 66.29790575967675 -19.140403561325776 M66.29790575967675 -19.140403561325776 C66.62759452908381 -19.065154251128895, 66.95728329849086 -18.989904940932014, 67.51657688623538 -18.862249829261074 M66.29790575967675 -19.140403561325776 C66.54830344052132 -19.083251924670574, 66.79870112136591 -19.02610028801537, 67.51657688623538 -18.862249829261074 M67.51657688623538 -18.862249829261074 C67.89371677956049 -18.750316688569878, 68.27085667288561 -18.638383547878686, 68.7149227514606 -18.50658706670804 M67.51657688623538 -18.862249829261074 C67.8019606271012 -18.777549432981928, 68.087344367967 -18.69284903670278, 68.7149227514606 -18.50658706670804 M68.7149227514606 -18.50658706670804 C69.01629389145864 -18.39567970134448, 69.3176650314567 -18.28477233598092, 69.8880190951478 -18.074876768247425 M68.7149227514606 -18.50658706670804 C69.03456677193789 -18.388955112415463, 69.35421079241517 -18.271323158122886, 69.8880190951478 -18.074876768247425 M69.8880190951478 -18.074876768247425 C70.2974650446262 -17.893627192195886, 70.7069109941046 -17.71237761614435, 71.03104541279238 -17.568892924097174 M69.8880190951478 -18.074876768247425 C70.22564259776236 -17.92542085888532, 70.56326610037692 -17.775964949523217, 71.03104541279238 -17.568892924097174 M71.03104541279238 -17.568892924097174 C71.31806732267134 -17.419153777559632, 71.60508923255028 -17.26941463102209, 72.13930476407678 -16.990714730406097 M71.03104541279238 -17.568892924097174 C71.44301412237412 -17.353969112186928, 71.85498283195588 -17.13904530027668, 72.13930476407678 -16.990714730406097 M72.13930476407678 -16.990714730406097 C72.5104267638139 -16.765738393210505, 72.88154876355102 -16.54076205601491, 73.2082430736057 -16.342718045390892 M72.13930476407678 -16.990714730406097 C72.49059655014764 -16.777759585270257, 72.84188833621852 -16.564804440134417, 73.2082430736057 -16.342718045390892 M73.2082430736057 -16.342718045390892 C73.57688420576214 -16.085569949815973, 73.94552533791857 -15.828421854241052, 74.23346784457871 -15.627565626425154 M73.2082430736057 -16.342718045390892 C73.41613252312274 -16.197703364797032, 73.62402197263978 -16.052688684203172, 74.23346784457871 -15.627565626425154 M74.23346784457871 -15.627565626425154 C74.538664500878 -15.384179414650582, 74.84386115717729 -15.140793202876011, 75.21076620850187 -14.848196188198123 M74.23346784457871 -15.627565626425154 C74.55866802180209 -15.368227139029662, 74.88386819902549 -15.10888865163417, 75.21076620850187 -14.848196188198123 M75.21076620850187 -14.848196188198123 C75.49662559346727 -14.588586258197408, 75.78248497843268 -14.328976328196692, 76.13612223676799 -14.007812326905688 M75.21076620850187 -14.848196188198123 C75.47769723261533 -14.605776494706163, 75.74462825672877 -14.363356801214202, 76.13612223676799 -14.007812326905688 M76.13612223676799 -14.007812326905688 C76.38429242158425 -13.751556235931805, 76.6324626064005 -13.495300144957923, 77.00573344296865 -13.10986736009568 M76.13612223676799 -14.007812326905688 C76.41793030612175 -13.716822358425151, 76.6997383754755 -13.425832389944615, 77.00573344296865 -13.10986736009568 M77.00573344296865 -13.10986736009568 C77.25120091740978 -12.821527297122147, 77.49666839185092 -12.533187234148613, 77.81602640812658 -12.158051136245305 M77.00573344296865 -13.10986736009568 C77.3060527580038 -12.757095204002262, 77.60637207303895 -12.404323047908845, 77.81602640812658 -12.158051136245305 M77.81602640812658 -12.158051136245305 C78.02029912641775 -11.884344303362592, 78.22457184470895 -11.610637470479878, 78.56367146464063 -11.156274872382312 M77.81602640812658 -12.158051136245305 C78.07097866997626 -11.8164383319956, 78.32593093182595 -11.474825527745896, 78.56367146464063 -11.156274872382312 M78.56367146464063 -11.156274872382312 C78.70745294629677 -10.935387905824651, 78.8512344279529 -10.714500939266989, 79.24559637860425 -10.108655082055241 M78.56367146464063 -11.156274872382312 C78.83280901409127 -10.742807322874858, 79.1019465635419 -10.329339773367405, 79.24559637860425 -10.108655082055241 M79.24559637860425 -10.108655082055241 C79.48970003509129 -9.675224321786928, 79.73380369157834 -9.241793561518614, 79.8589989742735 -9.019496659696287 M79.24559637860425 -10.108655082055241 C79.42880068582495 -9.783357283137127, 79.61200499304566 -9.45805948421901, 79.8589989742735 -9.019496659696287 M79.8589989742735 -9.019496659696287 C80.04203329811354 -8.639421969935311, 80.22506762195357 -8.259347280174335, 80.40135864880834 -7.893275190886684 M79.8589989742735 -9.019496659696287 C80.0498905511381 -8.623106215911506, 80.2407821280027 -8.226715772126724, 80.40135864880834 -7.893275190886684 M80.40135864880834 -7.893275190886684 C80.53015243934948 -7.575152038191534, 80.65894622989062 -7.257028885496384, 80.87044672997033 -6.734618561215508 M80.40135864880834 -7.893275190886684 C80.56503538800192 -7.488990480604069, 80.7287121271955 -7.084705770321452, 80.87044672997033 -6.734618561215508 M80.87044672997033 -6.734618561215508 C81.00349091077953 -6.333910686329672, 81.13653509158875 -5.933202811443835, 81.26433563421489 -5.548287939305138 M80.87044672997033 -6.734618561215508 C80.99556554193394 -6.3577806345565575, 81.12068435389756 -5.980942707897607, 81.26433563421489 -5.548287939305138 M81.26433563421489 -5.548287939305138 C81.35854304496515 -5.18903425236428, 81.45275045571542 -4.829780565423422, 81.58140678754556 -4.339158212148133 M81.26433563421489 -5.548287939305138 C81.38417824766591 -5.09127611409915, 81.50402086111693 -4.634264288893163, 81.58140678754556 -4.339158212148133 M81.58140678754556 -4.339158212148133 C81.65261739507882 -3.973506792832035, 81.7238280026121 -3.607855373515937, 81.82035727658177 -3.1121979531509023 M81.58140678754556 -4.339158212148133 C81.64940057294034 -3.9900244946375776, 81.71739435833511 -3.640890777127022, 81.82035727658177 -3.1121979531509023 M81.82035727658177 -3.1121979531509023 C81.88387817191308 -2.619542432580886, 81.94739906724438 -2.1268869120108693, 81.98020520250937 -1.872449005199798 M81.82035727658177 -3.1121979531509023 C81.87660601791367 -2.675943822951009, 81.93285475924557 -2.2396896927511154, 81.98020520250937 -1.872449005199798 M81.98020520250937 -1.872449005199798 C82.00187794344285 -1.5348785712392174, 82.02355068437633 -1.197308137278637, 82.06029371591342 -0.6250057626472757 M81.98020520250937 -1.872449005199798 C82.00307915663717 -1.516168706135844, 82.02595311076497 -1.1598884070718902, 82.06029371591342 -0.6250057626472757 M82.06029371591342 -0.6250057626472757 C82.06029371591342 -0.13861187198060942, 82.06029371591342 0.34778201868605685, 82.06029371591342 0.625005762647271 M82.06029371591342 -0.6250057626472757 C82.06029371591342 -0.17819721133966343, 82.06029371591342 0.26861133996794884, 82.06029371591342 0.625005762647271 M82.06029371591342 0.625005762647271 C82.04221254471182 0.906634598970946, 82.02413137351022 1.1882634352946209, 81.98020520250937 1.8724490051997846 M82.06029371591342 0.625005762647271 C82.033833650699 1.0371426365421097, 82.00737358548457 1.4492795104369485, 81.98020520250937 1.8724490051997846 M81.98020520250937 1.8724490051997846 C81.92543213177633 2.2972581256389484, 81.87065906104331 2.7220672460781117, 81.82035727658177 3.1121979531508885 M81.98020520250937 1.8724490051997846 C81.9460348942281 2.1374671685387083, 81.91186458594683 2.402485331877632, 81.82035727658177 3.1121979531508885 M81.82035727658177 3.1121979531508885 C81.75547518919905 3.4453537590272023, 81.6905931018163 3.778509564903516, 81.58140678754556 4.339158212148129 M81.82035727658177 3.1121979531508885 C81.75998334045366 3.422205355132859, 81.69960940432554 3.732212757114829, 81.58140678754556 4.339158212148129 M81.58140678754556 4.339158212148129 C81.45649315334784 4.815508037255593, 81.33157951915011 5.291857862363057, 81.26433563421489 5.548287939305125 M81.58140678754556 4.339158212148129 C81.51143469376765 4.6059921318205514, 81.44146259998976 4.872826051492974, 81.26433563421489 5.548287939305125 M81.26433563421489 5.548287939305125 C81.13523402031691 5.9371214308170455, 81.00613240641894 6.325954922328965, 80.87044672997033 6.734618561215495 M81.26433563421489 5.548287939305125 C81.11312513229439 6.003709878967958, 80.96191463037388 6.459131818630791, 80.87044672997033 6.734618561215495 M80.87044672997033 6.734618561215495 C80.74207983848673 7.051687264984977, 80.61371294700314 7.36875596875446, 80.40135864880834 7.893275190886679 M80.87044672997033 6.734618561215495 C80.73671400050345 7.064940988545104, 80.60298127103658 7.395263415874715, 80.40135864880834 7.893275190886679 M80.40135864880834 7.893275190886679 C80.20547695319267 8.300027723029492, 80.009595257577 8.706780255172305, 79.8589989742735 9.019496659696284 M80.40135864880834 7.893275190886679 C80.19640134196035 8.31887342394037, 79.99144403511237 8.744471656994063, 79.8589989742735 9.019496659696284 M79.8589989742735 9.019496659696284 C79.61777983032522 9.44780567586347, 79.37656068637692 9.876114692030658, 79.24559637860425 10.108655082055236 M79.8589989742735 9.019496659696284 C79.65684159419942 9.378447558672303, 79.45468421412535 9.73739845764832, 79.24559637860425 10.108655082055236 M79.24559637860425 10.108655082055236 C79.03934540605971 10.425511962024562, 78.83309443351519 10.742368841993885, 78.56367146464065 11.156274872382301 M79.24559637860425 10.108655082055236 C79.06673635346618 10.383432111308974, 78.88787632832813 10.658209140562713, 78.56367146464065 11.156274872382301 M78.56367146464065 11.156274872382301 C78.2894811217159 11.523664952647366, 78.01529077879113 11.89105503291243, 77.81602640812659 12.158051136245302 M78.56367146464065 11.156274872382301 C78.32426408469085 11.477058951054028, 78.08485670474106 11.797843029725755, 77.81602640812659 12.158051136245302 M77.81602640812659 12.158051136245302 C77.63089949681986 12.375511740285841, 77.44577258551315 12.592972344326379, 77.00573344296866 13.10986736009567 M77.81602640812659 12.158051136245302 C77.538338800388 12.484238801167544, 77.26065119264942 12.810426466089789, 77.00573344296866 13.10986736009567 M77.00573344296866 13.10986736009567 C76.70776194789892 13.417547392669894, 76.40979045282917 13.725227425244116, 76.13612223676799 14.007812326905684 M77.00573344296866 13.10986736009567 C76.68275329056759 13.443370884613444, 76.35977313816652 13.776874409131217, 76.13612223676799 14.007812326905684 M76.13612223676799 14.007812326905684 C75.91437893195682 14.209193729328852, 75.69263562714563 14.410575131752022, 75.2107662085019 14.848196188198111 M76.13612223676799 14.007812326905684 C75.7840641828829 14.32754213649846, 75.43200612899781 14.647271946091237, 75.2107662085019 14.848196188198111 M75.2107662085019 14.848196188198111 C74.8789328357549 15.112824472506938, 74.5470994630079 15.377452756815766, 74.23346784457871 15.627565626425152 M75.2107662085019 14.848196188198111 C74.94011174937576 15.064035916933564, 74.66945729024962 15.279875645669017, 74.23346784457871 15.627565626425152 M74.23346784457871 15.627565626425152 C73.87917991428519 15.874701549720596, 73.52489198399168 16.12183747301604, 73.2082430736057 16.34271804539089 M74.23346784457871 15.627565626425152 C73.914591038577 15.850000282337499, 73.59571423257528 16.072434938249845, 73.2082430736057 16.34271804539089 M73.2082430736057 16.34271804539089 C72.7950190111663 16.593216900415786, 72.3817949487269 16.843715755440687, 72.13930476407678 16.990714730406093 M73.2082430736057 16.34271804539089 C72.87645012533517 16.543852880464275, 72.54465717706465 16.74498771553766, 72.13930476407678 16.990714730406093 M72.13930476407678 16.990714730406093 C71.78330612018301 17.176438994897456, 71.42730747628926 17.36216325938882, 71.03104541279238 17.56889292409717 M72.13930476407678 16.990714730406093 C71.81040953933565 17.162299158486096, 71.48151431459452 17.333883586566095, 71.03104541279238 17.56889292409717 M71.03104541279238 17.56889292409717 C70.78506474694777 17.67778126810938, 70.53908408110317 17.78666961212159, 69.8880190951478 18.07487676824742 M71.03104541279238 17.56889292409717 C70.70349322694713 17.713890560280497, 70.37594104110188 17.858888196463827, 69.8880190951478 18.07487676824742 M69.8880190951478 18.07487676824742 C69.61344902872564 18.17592109078865, 69.33887896230348 18.276965413329876, 68.71492275146062 18.506587066708033 M69.8880190951478 18.07487676824742 C69.57616151244821 18.189643241460765, 69.26430392974862 18.304409714674104, 68.71492275146062 18.506587066708033 M68.71492275146062 18.506587066708033 C68.30501912913438 18.628244310186442, 67.89511550680814 18.749901553664852, 67.51657688623541 18.86224982926107 M68.71492275146062 18.506587066708033 C68.26731850493978 18.639433657552786, 67.81971425841894 18.772280248397536, 67.51657688623541 18.86224982926107 M67.51657688623541 18.86224982926107 C67.17010129593677 18.94133062178221, 66.82362570563812 19.02041141430335, 66.29790575967677 19.140403561325773 M67.51657688623541 18.86224982926107 C67.15311372429525 18.94520792415512, 66.78965056235509 19.028166019049173, 66.29790575967677 19.140403561325773 M66.29790575967677 19.140403561325773 C65.82411244361681 19.217002790344303, 65.35031912755687 19.293602019362837, 65.06391715284788 19.3399052695533 M66.29790575967677 19.140403561325773 C65.84924577178583 19.212939428757807, 65.4005857838949 19.285475296189844, 65.06391715284788 19.3399052695533 M65.06391715284788 19.3399052695533 C64.63855255887366 19.38093968035822, 64.21318796489943 19.421974091163143, 63.8196817896239 19.45993515863156 M65.06391715284788 19.3399052695533 C64.5690668814934 19.38764288008634, 64.07421661013893 19.435380490619384, 63.8196817896239 19.45993515863156 M63.8196817896239 19.45993515863156 C63.483226864659684 19.47072461320538, 63.14677193969546 19.481514067779198, 62.57031250000001 19.5 M63.8196817896239 19.45993515863156 C63.54854995808638 19.468629828742873, 63.277418126548866 19.477324498854184, 62.57031250000001 19.5 M62.57031250000001 19.5 C62.57031250000001 19.5, 62.5703125 19.5, 62.5703125 19.5 M62.57031250000001 19.5 C62.57031250000001 19.5, 62.5703125 19.5, 62.5703125 19.5 M62.5703125 19.5 C34.82453186389299 19.5, 7.078751227785986 19.5, -62.57031249999999 19.5 M62.5703125 19.5 C26.696292551816633 19.5, -9.177727396366734 19.5, -62.57031249999999 19.5 M-62.57031249999999 19.5 C-63.06238626838737 19.484220152011304, -63.554460036774756 19.468440304022607, -63.81968178962389 19.45993515863156 M-62.57031249999999 19.5 C-62.995063474950825 19.486379062960946, -63.41981444990166 19.47275812592189, -63.81968178962389 19.45993515863156 M-63.81968178962389 19.45993515863156 C-64.26001151645863 19.417457079457787, -64.70034124329337 19.374979000284018, -65.06391715284786 19.3399052695533 M-63.81968178962389 19.45993515863156 C-64.2300073139627 19.420351548787238, -64.6403328383015 19.380767938942913, -65.06391715284786 19.3399052695533 M-65.06391715284786 19.3399052695533 C-65.46329806971642 19.27533646015926, -65.86267898658495 19.21076765076522, -66.29790575967675 19.140403561325773 M-65.06391715284786 19.3399052695533 C-65.46959432998231 19.274318529627696, -65.87527150711678 19.208731789702092, -66.29790575967675 19.140403561325773 M-66.29790575967675 19.140403561325773 C-66.643757174838 19.06146523270662, -66.98960858999924 18.982526904087468, -67.51657688623538 18.862249829261074 M-66.29790575967675 19.140403561325773 C-66.58746287650582 19.07431403894631, -66.8770199933349 19.008224516566848, -67.51657688623538 18.862249829261074 M-67.51657688623538 18.862249829261074 C-67.84091452135763 18.76598812163978, -68.16525215647988 18.669726414018488, -68.71492275146059 18.506587066708043 M-67.51657688623538 18.862249829261074 C-67.8062681153642 18.776270993075936, -68.09595934449301 18.690292156890795, -68.71492275146059 18.506587066708043 M-68.71492275146059 18.506587066708043 C-69.15257914460608 18.345525468379154, -69.59023553775158 18.184463870050262, -69.8880190951478 18.074876768247425 M-68.71492275146059 18.506587066708043 C-69.00652326902957 18.39927538071702, -69.29812378659855 18.291963694726004, -69.8880190951478 18.074876768247425 M-69.8880190951478 18.074876768247425 C-70.16203258030446 17.953579126689807, -70.43604606546113 17.83228148513219, -71.03104541279238 17.568892924097174 M-69.8880190951478 18.074876768247425 C-70.11964730591713 17.972341830346583, -70.35127551668647 17.869806892445744, -71.03104541279238 17.568892924097174 M-71.03104541279238 17.568892924097174 C-71.32289859732722 17.41663330466623, -71.61475178186208 17.264373685235284, -72.13930476407678 16.990714730406097 M-71.03104541279238 17.568892924097174 C-71.2830169395836 17.43743953996566, -71.53498846637483 17.305986155834145, -72.13930476407678 16.990714730406097 M-72.13930476407678 16.990714730406097 C-72.55458152095197 16.738971519951253, -72.96985827782716 16.487228309496405, -73.20824307360569 16.3427180453909 M-72.13930476407678 16.990714730406097 C-72.47323533114965 16.788284058252692, -72.80716589822251 16.585853386099284, -73.20824307360569 16.3427180453909 M-73.20824307360569 16.3427180453909 C-73.43518144332477 16.184415662678557, -73.66211981304386 16.026113279966214, -74.23346784457871 15.627565626425156 M-73.20824307360569 16.3427180453909 C-73.50371237082223 16.13661145431237, -73.79918166803877 15.930504863233836, -74.23346784457871 15.627565626425156 M-74.23346784457871 15.627565626425156 C-74.5883522939483 15.344554721924714, -74.94323674331791 15.061543817424273, -75.21076620850187 14.848196188198125 M-74.23346784457871 15.627565626425156 C-74.44850002005047 15.456083188732936, -74.66353219552222 15.284600751040715, -75.21076620850187 14.848196188198125 M-75.21076620850187 14.848196188198125 C-75.43947806536171 14.64048613118214, -75.66818992222156 14.432776074166155, -76.13612223676797 14.007812326905697 M-75.21076620850187 14.848196188198125 C-75.55825588397812 14.53261525900359, -75.90574555945436 14.217034329809055, -76.13612223676797 14.007812326905697 M-76.13612223676797 14.007812326905697 C-76.40627727502344 13.728855069765794, -76.67643231327891 13.449897812625892, -77.00573344296865 13.109867360095677 M-76.13612223676797 14.007812326905697 C-76.46533272751033 13.66787546653026, -76.79454321825268 13.327938606154824, -77.00573344296865 13.109867360095677 M-77.00573344296865 13.109867360095677 C-77.25270449255784 12.819761112197378, -77.49967554214705 12.52965486429908, -77.81602640812658 12.158051136245307 M-77.00573344296865 13.109867360095677 C-77.20172294892284 12.879646934283079, -77.39771245487701 12.649426508470482, -77.81602640812658 12.158051136245307 M-77.81602640812658 12.158051136245307 C-78.04158854978857 11.855818415552081, -78.26715069145055 11.553585694858855, -78.56367146464063 11.156274872382316 M-77.81602640812658 12.158051136245307 C-78.08512924910478 11.797477845107657, -78.354232090083 11.43690455397001, -78.56367146464063 11.156274872382316 M-78.56367146464063 11.156274872382316 C-78.73894836614238 10.887002483237382, -78.91422526764413 10.617730094092448, -79.24559637860425 10.108655082055249 M-78.56367146464063 11.156274872382316 C-78.83381383433917 10.741263649142077, -79.1039562040377 10.326252425901838, -79.24559637860425 10.108655082055249 M-79.24559637860425 10.108655082055249 C-79.48074453152422 9.691125725213334, -79.7158926844442 9.273596368371422, -79.8589989742735 9.019496659696289 M-79.24559637860425 10.108655082055249 C-79.40324869127446 9.828727436881566, -79.56090100394465 9.548799791707884, -79.8589989742735 9.019496659696289 M-79.8589989742735 9.019496659696289 C-79.9893893364717 8.748738282684911, -80.1197796986699 8.477979905673534, -80.40135864880834 7.893275190886686 M-79.8589989742735 9.019496659696289 C-80.02228702603402 8.68042552641096, -80.18557507779454 8.34135439312563, -80.40135864880834 7.893275190886686 M-80.40135864880834 7.893275190886686 C-80.58820381599739 7.431764015524185, -80.77504898318644 6.970252840161684, -80.87044672997033 6.73461856121551 M-80.40135864880834 7.893275190886686 C-80.54149058128559 7.547146608401281, -80.68162251376283 7.201018025915875, -80.87044672997033 6.73461856121551 M-80.87044672997033 6.73461856121551 C-81.0253507652918 6.268072287433577, -81.18025480061327 5.801526013651642, -81.26433563421489 5.5482879393051325 M-80.87044672997033 6.73461856121551 C-81.00739964881893 6.322138190127844, -81.14435256766754 5.909657819040177, -81.26433563421489 5.5482879393051325 M-81.26433563421489 5.5482879393051325 C-81.39011574022794 5.068633881634549, -81.51589584624101 4.588979823963964, -81.58140678754556 4.339158212148136 M-81.26433563421489 5.5482879393051325 C-81.36215922037707 5.175244208258329, -81.45998280653923 4.802200477211525, -81.58140678754556 4.339158212148136 M-81.58140678754556 4.339158212148136 C-81.6568979179144 3.9515272127601495, -81.73238904828325 3.563896213372163, -81.82035727658177 3.112197953150904 M-81.58140678754556 4.339158212148136 C-81.63729329069163 4.052192830109658, -81.69317979383771 3.765227448071181, -81.82035727658177 3.112197953150904 M-81.82035727658177 3.112197953150904 C-81.88122740929171 2.6401012240199093, -81.94209754200165 2.168004494888914, -81.98020520250937 1.872449005199809 M-81.82035727658177 3.112197953150904 C-81.88369507805459 2.620962472391432, -81.94703287952738 2.1297269916319603, -81.98020520250937 1.872449005199809 M-81.98020520250937 1.872449005199809 C-81.99849674182938 1.5875435156256639, -82.01678828114942 1.3026380260515187, -82.06029371591342 0.6250057626472781 M-81.98020520250937 1.872449005199809 C-81.99817115689905 1.5926147637231778, -82.01613711128873 1.3127805222465465, -82.06029371591342 0.6250057626472781 M-82.06029371591342 0.6250057626472781 C-82.06029371591342 0.22152287632877377, -82.06029371591342 -0.1819600099897306, -82.06029371591342 -0.6250057626472687 M-82.06029371591342 0.6250057626472781 C-82.06029371591342 0.12696103941248454, -82.06029371591342 -0.37108368382230905, -82.06029371591342 -0.6250057626472687 M-82.06029371591342 -0.6250057626472687 C-82.03505421433957 -1.0181313726189143, -82.00981471276572 -1.4112569825905596, -81.98020520250937 -1.8724490051997822 M-82.06029371591342 -0.6250057626472687 C-82.03376966395746 -1.0381392816907034, -82.0072456120015 -1.451272800734138, -81.98020520250937 -1.8724490051997822 M-81.98020520250937 -1.8724490051997822 C-81.92484335601375 -2.3018245541866094, -81.86948150951814 -2.731200103173437, -81.82035727658177 -3.112197953150895 M-81.98020520250937 -1.8724490051997822 C-81.94204175698046 -2.1684371524972197, -81.90387831145156 -2.464425299794657, -81.82035727658177 -3.112197953150895 M-81.82035727658177 -3.112197953150895 C-81.75760966948464 -3.434393653883225, -81.6948620623875 -3.756589354615554, -81.58140678754556 -4.339158212148126 M-81.82035727658177 -3.112197953150895 C-81.76069759413195 -3.418537813452379, -81.70103791168214 -3.7248776737538623, -81.58140678754556 -4.339158212148126 M-81.58140678754556 -4.339158212148126 C-81.48426718513974 -4.709593616691497, -81.38712758273394 -5.080029021234868, -81.26433563421489 -5.548287939305123 M-81.58140678754556 -4.339158212148126 C-81.47452365430132 -4.74674992265137, -81.3676405210571 -5.154341633154613, -81.26433563421489 -5.548287939305123 M-81.26433563421489 -5.548287939305123 C-81.15126533712596 -5.88883765883163, -81.03819504003705 -6.229387378358137, -80.87044672997033 -6.734618561215485 M-81.26433563421489 -5.548287939305123 C-81.1494836140621 -5.894203924820971, -81.03463159390931 -6.240119910336819, -80.87044672997033 -6.734618561215485 M-80.87044672997033 -6.734618561215485 C-80.7128803308998 -7.123810613258773, -80.55531393182928 -7.5130026653020625, -80.40135864880834 -7.893275190886676 M-80.87044672997033 -6.734618561215485 C-80.68813696490378 -7.1849272056494025, -80.50582719983721 -7.63523585008332, -80.40135864880834 -7.893275190886676 M-80.40135864880834 -7.893275190886676 C-80.24654303365939 -8.214753128266992, -80.09172741851043 -8.536231065647307, -79.8589989742735 -9.019496659696282 M-80.40135864880834 -7.893275190886676 C-80.20629509562801 -8.298328832757063, -80.01123154244767 -8.70338247462745, -79.8589989742735 -9.019496659696282 M-79.8589989742735 -9.019496659696282 C-79.66193733401794 -9.369399556624927, -79.46487569376237 -9.71930245355357, -79.24559637860425 -10.108655082055243 M-79.8589989742735 -9.019496659696282 C-79.62017584192863 -9.443551314639132, -79.38135270958374 -9.86760596958198, -79.24559637860425 -10.108655082055243 M-79.24559637860425 -10.108655082055243 C-79.0534425583084 -10.40385495055515, -78.86128873801258 -10.699054819055057, -78.56367146464063 -11.156274872382308 M-79.24559637860425 -10.108655082055243 C-79.09722004062381 -10.336600981818723, -78.94884370264336 -10.564546881582205, -78.56367146464063 -11.156274872382308 M-78.56367146464063 -11.156274872382308 C-78.28153681798418 -11.534309595906894, -77.99940217132772 -11.912344319431481, -77.81602640812659 -12.158051136245302 M-78.56367146464063 -11.156274872382308 C-78.32538771119792 -11.475553393899034, -78.0871039577552 -11.794831915415758, -77.81602640812659 -12.158051136245302 M-77.81602640812659 -12.158051136245302 C-77.51088392458846 -12.516488860508376, -77.20574144105034 -12.874926584771451, -77.00573344296866 -13.10986736009567 M-77.81602640812659 -12.158051136245302 C-77.54857402681408 -12.472215921806583, -77.28112164550159 -12.786380707367863, -77.00573344296866 -13.10986736009567 M-77.00573344296866 -13.10986736009567 C-76.76210856149349 -13.361430052193539, -76.51848368001832 -13.612992744291407, -76.13612223676799 -14.007812326905677 M-77.00573344296866 -13.10986736009567 C-76.80174222605696 -13.320505039547383, -76.59775100914526 -13.531142718999096, -76.13612223676799 -14.007812326905677 M-76.13612223676799 -14.007812326905677 C-75.78104343733162 -14.330285497683581, -75.42596463789525 -14.652758668461486, -75.2107662085019 -14.848196188198107 M-76.13612223676799 -14.007812326905677 C-75.79472501139281 -14.317860254115818, -75.45332778601764 -14.627908181325958, -75.2107662085019 -14.848196188198107 M-75.2107662085019 -14.848196188198107 C-74.85249512186103 -15.133907845800183, -74.49422403522016 -15.419619503402256, -74.23346784457871 -15.627565626425149 M-75.2107662085019 -14.848196188198107 C-74.96963307992992 -15.040493441412218, -74.72849995135793 -15.23279069462633, -74.23346784457871 -15.627565626425149 M-74.23346784457871 -15.627565626425149 C-73.8366783128137 -15.904348827042433, -73.4398887810487 -16.18113202765972, -73.20824307360571 -16.342718045390885 M-74.23346784457871 -15.627565626425149 C-73.86994181402979 -15.881145648547855, -73.50641578348086 -16.134725670670562, -73.20824307360571 -16.342718045390885 M-73.20824307360571 -16.342718045390885 C-72.83629143733289 -16.568197313129904, -72.46433980106008 -16.793676580868922, -72.13930476407678 -16.99071473040609 M-73.20824307360571 -16.342718045390885 C-72.85122232959883 -16.559146118494635, -72.49420158559194 -16.775574191598384, -72.13930476407678 -16.99071473040609 M-72.13930476407678 -16.99071473040609 C-71.81995462362366 -17.157319494126963, -71.50060448317053 -17.323924257847832, -71.0310454127924 -17.56889292409717 M-72.13930476407678 -16.99071473040609 C-71.81186761123182 -17.161538483311805, -71.48443045838685 -17.33236223621752, -71.0310454127924 -17.56889292409717 M-71.0310454127924 -17.56889292409717 C-70.68678649835047 -17.72128613344275, -70.34252758390855 -17.87367934278833, -69.88801909514781 -18.07487676824742 M-71.0310454127924 -17.56889292409717 C-70.67523479009843 -17.726399732016674, -70.31942416740448 -17.88390653993618, -69.88801909514781 -18.07487676824742 M-69.88801909514781 -18.07487676824742 C-69.51276485345258 -18.21297379800345, -69.13751061175734 -18.351070827759482, -68.71492275146062 -18.506587066708033 M-69.88801909514781 -18.07487676824742 C-69.53510889654338 -18.20475098359997, -69.18219869793894 -18.334625198952512, -68.71492275146062 -18.506587066708033 M-68.71492275146062 -18.506587066708033 C-68.33065375102505 -18.620636088968165, -67.94638475058947 -18.734685111228302, -67.51657688623541 -18.862249829261067 M-68.71492275146062 -18.506587066708033 C-68.34923875037346 -18.61512015871621, -67.9835547492863 -18.72365325072439, -67.51657688623541 -18.862249829261067 M-67.51657688623541 -18.862249829261067 C-67.26772317027802 -18.91904906600608, -67.01886945432062 -18.975848302751096, -66.29790575967677 -19.140403561325773 M-67.51657688623541 -18.862249829261067 C-67.1953845843653 -18.935559876187273, -66.87419228249519 -19.008869923113476, -66.29790575967677 -19.140403561325773 M-66.29790575967677 -19.140403561325773 C-66.03866714581362 -19.18231524998969, -65.77942853195049 -19.224226938653608, -65.06391715284788 -19.3399052695533 M-66.29790575967677 -19.140403561325773 C-65.83651554767707 -19.214997552667352, -65.37512533567735 -19.289591544008932, -65.06391715284788 -19.3399052695533 M-65.06391715284788 -19.3399052695533 C-64.81172894204273 -19.36423356294897, -64.55954073123759 -19.388561856344648, -63.8196817896239 -19.45993515863156 M-65.06391715284788 -19.3399052695533 C-64.66632474653117 -19.378260530815844, -64.26873234021447 -19.41661579207839, -63.8196817896239 -19.45993515863156 M-63.8196817896239 -19.45993515863156 C-63.38222647584425 -19.473963499089358, -62.94477116206459 -19.48799183954716, -62.57031250000001 -19.5 M-63.8196817896239 -19.45993515863156 C-63.56039538975329 -19.468249968805047, -63.30110898988268 -19.47656477897854, -62.57031250000001 -19.5 M-62.57031250000001 -19.5 C-62.57031250000001 -19.5, -62.5703125 -19.5, -62.5703125 -19.5 M-62.57031250000001 -19.5 C-62.57031250000001 -19.5, -62.5703125 -19.5, -62.5703125 -19.5"/></g><g transform="translate(-69.6953125, -12)" style="" class="label"><rect/><foreignObject height="24" width="139.390625"><div style="display: table-cell; white-space: nowrap; line-height: 1.5; max-width: 200px; text-align: center;" xmlns="http://www.w3.org/1999/xhtml"><span class="nodeLabel"><p>Usuário / Aplicação</p></span></div></foreignObject></g></g><g transform="translate(195.22155380249023, 273.4748306274414)" id="flowchart-V-1" class="node default view"><rect height="126" width="260" y="-63" x="-130" style="fill:#dfe8f3 !important;stroke:#12437f !important" class="basic label-container"/><g transform="translate(-100, -48)" style="color:#0d2b57 !important" class="label"><rect/><foreignObject height="96" width="200"><div xmlns="http://www.w3.org/1999/xhtml" style="color: rgb(13, 43, 87) !important; display: table; white-space: break-spaces; line-height: 1.5; max-width: 200px; text-align: center; width: 200px;"><span class="nodeLabel" style="color:#0d2b57 !important"><p><b>VIEW v_empr</b><br />tabela virtual = consulta<br />SELECT ... FROM empr WHERE ...</p></span></div></foreignObject></g></g><g transform="translate(195.22155380249023, 449.9052848815918)" id="flowchart-B-3" class="node default base"><path transform="translate(-70.8984375, -39.43045387994143)" style="fill:#d6e0ee !important;stroke:#334155 !important" class="basic label-container" d="M0,13.28696925329429 a70.8984375,13.28696925329429 0,0,0 141.796875,0 a70.8984375,13.28696925329429 0,0,0 -141.796875,0 l0,52.28696925329429 a70.8984375,13.28696925329429 0,0,0 141.796875,0 l0,-52.28696925329429"/><g transform="translate(-63.3984375, -2)" style="color:#0d2b57 !important" class="label"><rect/><foreignObject height="24" width="126.796875"><div xmlns="http://www.w3.org/1999/xhtml" style="color: rgb(13, 43, 87) !important; display: table-cell; white-space: nowrap; line-height: 1.5; max-width: 200px; text-align: center;"><span class="nodeLabel" style="color:#0d2b57 !important"><p>Tabela base EMPR</p></span></div></foreignObject></g></g><g transform="translate(195.22155380249023, 575.164249420166)" id="flowchart-D-5" class="node default base"><path transform="translate(-48.203125, -35.82851093860268)" style="fill:#d6e0ee !important;stroke:#334155 !important" class="basic label-container" d="M0,10.885673959068455 a48.203125,10.885673959068455 0,0,0 96.40625,0 a48.203125,10.885673959068455 0,0,0 -96.40625,0 l0,49.885673959068455 a48.203125,10.885673959068455 0,0,0 96.40625,0 l0,-49.885673959068455"/><g transform="translate(-40.703125, -2)" style="color:#0d2b57 !important" class="label"><rect/><foreignObject height="24" width="81.40625"><div xmlns="http://www.w3.org/1999/xhtml" style="color: rgb(13, 43, 87) !important; display: table-cell; white-space: nowrap; line-height: 1.5; max-width: 200px; text-align: center;"><span class="nodeLabel" style="color:#0d2b57 !important"><p>Dados reais</p></span></div></foreignObject></g></g><g transform="translate(299.91185760498047, 60.2374153137207)" id="flowchart-Cat-6" class="node default"><path transform="translate(-77.3203125, -52.237414091747226)" style="" class="basic label-container" d="M0,13.82494272783148 a77.3203125,13.82494272783148 0,0,0 154.640625,0 a77.3203125,13.82494272783148 0,0,0 -154.640625,0 l0,76.82494272783148 a77.3203125,13.82494272783148 0,0,0 154.640625,0 l0,-76.82494272783148"/><g transform="translate(-69.8203125, -14)" style="" class="label"><rect/><foreignObject height="48" width="139.640625"><div style="display: table-cell; white-space: nowrap; line-height: 1.5; max-width: 200px; text-align: center;" xmlns="http://www.w3.org/1999/xhtml"><span class="nodeLabel"><p>Catálogo /<br />dicionário de dados</p></span></div></foreignObject></g></g></g></g></g></svg>